<?xml version="1.0" encoding="iso-8859-1"?>
<!-- Generator: Adobe Illustrator 19.0.0, SVG Export Plug-In . SVG Version: 6.00 Build 0)  -->
<svg version="1.1" id="Capa_1" xmlns="http://www.w3.org/2000/svg" xmlns:xlink="http://www.w3.org/1999/xlink" x="0px" y="0px"
	 viewBox="0 0 512 512" style="enable-background:new 0 0 512 512;" xml:space="preserve">
<g>
	<g>
		<path d="M437.15,74.817C388.895,26.571,324.561,0,256,0C187.587,0,123.279,26.65,74.92,75.041
			C26.559,123.435-0.048,187.766,0,256.184c0.048,68.507,27.005,132.938,75.905,181.425C124.335,485.629,188.219,512,255.997,512
			c0.677,0,1.357-0.002,2.035-0.008c44.288-0.345,87.858-12.192,126.001-34.262l-15.024-25.967
			c-33.653,19.472-72.109,29.925-111.21,30.23c-60.48,0.456-117.575-22.858-160.77-65.688C53.847,373.49,30.043,316.616,30,256.163
			C29.958,195.762,53.447,138.97,96.141,96.247C138.832,53.527,195.605,30,256,30c124.595,0,225.979,101.365,226,225.959
			c0.008,49.387-15.621,96.298-45.198,135.661c-2.573,3.424-6.37,5.478-10.692,5.784c-4.368,0.308-8.658-1.291-11.756-4.388
			l-20.406-20.406l9.06-9.06l-70.711-70.711l-28.284,28.284c-58.885-7.935-105.202-54.252-113.137-113.137l28.284-28.284
			l-70.711-70.711l-39.054,39.054c-3.826,66.249,19.552,133.776,70.167,184.391s118.142,73.993,184.391,70.167l8.782-8.781
			l20.406,20.406c9.247,9.247,22.033,14.022,35.082,13.1c12.935-0.913,24.803-7.36,32.563-17.688
			C494.3,365.039,512.01,311.895,512,255.954C511.988,187.393,485.406,123.064,437.15,74.817z"/>
	</g>
</g>
<g>
</g>
<g>
</g>
<g>
</g>
<g>
</g>
<g>
</g>
<g>
</g>
<g>
</g>
<g>
</g>
<g>
</g>
<g>
</g>
<g>
</g>
<g>
</g>
<g>
</g>
<g>
</g>
<g>
</g>
</svg>
