<?xml version="1.0" encoding="UTF-8"?>
<svg width="59px" height="59px" viewBox="0 0 59 59" version="1.1" xmlns="http://www.w3.org/2000/svg" xmlns:xlink="http://www.w3.org/1999/xlink">
    <title>Behance</title>
    <g id="!--OnePager-RWD" stroke="none" stroke-width="1" fill="none" fill-rule="evenodd">
        <g id="Artboard-Copy-3" transform="translate(-748.000000, -10997.000000)" fill="#FFFFFF" fill-rule="nonzero">
            <g id="Footer" transform="translate(-186.000000, 10481.000000)">
                <g id="Behance" transform="translate(934.366344, 516.698749)">
                    <path d="M19.8843333,36.2741667 L14.5,36.2741667 L14.5,31.4166667 L19.9640833,31.4166667 C24.5025833,31.4166667 24.8046667,36.2741667 19.8843333,36.2741667 Z M36.2161667,29.80475 L43.5096667,29.80475 C43.2269167,25.6601667 36.9121667,25.027 36.2161667,29.80475 Z M14.5,21.75 L14.5,26.5833333 L20.2734167,26.5833333 C24.3165,26.5833333 24.9545,21.75 19.7731667,21.75 L14.5,21.75 Z M58,12.0833333 L58,45.9166667 C58,52.5890833 52.5915,58 45.9166667,58 L12.0833333,58 C5.4085,58 0,52.5890833 0,45.9166667 L0,12.0833333 C0,5.41091667 5.4085,0 12.0833333,0 L45.9166667,0 C52.5915,0 58,5.41091667 58,12.0833333 Z M33.8333333,19.3333333 L45.9166667,19.3333333 L45.9166667,16.9166667 L33.8333333,16.9166667 L33.8333333,19.3333333 Z M25.2493333,28.0768333 C29.8579167,25.723 29.68875,17.081 20.8679167,16.9505 L9.66666667,16.9505 L9.66666667,41.064 L20.0849167,41.064 C31.0130833,41.064 30.827,30.1068333 25.2493333,28.0768333 Z M48.17625,29.5316667 C47.5140833,25.2710833 44.4835833,22.4025 39.5173333,22.4025 C34.4568333,22.4025 31.4166667,25.6408333 31.4166667,31.9410833 C31.4166667,38.2993333 34.72025,41.0833333 39.672,41.0833333 C44.62375,41.0833333 47.1781667,38.3404167 47.8886667,36.25 L42.7870833,36.25 C41.0084167,38.31625 35.7956667,37.5090833 36.1001667,32.98025 L48.3285,32.98025 C48.3526667,31.4480833 48.2995,30.3485 48.17625,29.5316667 Z" id="Shape"></path>
                </g>
            </g>
        </g>
    </g>
</svg>