<?xml version="1.0" encoding="UTF-8"?>
<svg width="646px" height="370px" viewBox="0 0 646 370" version="1.1" xmlns="http://www.w3.org/2000/svg" xmlns:xlink="http://www.w3.org/1999/xlink">
    <title>Group</title>
    <g id="!--OnePager-RWD" stroke="none" stroke-width="1" fill="none" fill-rule="evenodd">
        <g id="Artboard-Copy-3" transform="translate(-81.000000, -1331.000000)" fill-rule="nonzero">
            <g id="Group" transform="translate(81.000000, 1331.000000)">
                <circle id="Oval" fill="#F2F2F2" cx="139.5" cy="295.5" r="33.5"></circle>
                <circle id="Oval" fill="#C81818" cx="144.5" cy="290.5" r="33.5"></circle>
                <rect id="Rectangle" fill="#3F3D56" x="173" y="253" width="415" height="1"></rect>
                <path d="M239.705882,10.0405412 L239.705882,7 L172.90144,7 L172.90144,10.0405412 L24.9656637,10.0405412 C22.3226054,10.0405381 19.787799,11.0918615 17.918874,12.9632317 C16.049949,14.8346018 15,17.3727255 15,20.0192433 L15,222.021258 C15,227.532354 19.4617715,232 24.9656637,232 L387.034336,232 C392.538228,232 397,227.532354 397,222.021258 L397,20.0192433 C397,17.3727255 395.950051,14.8346018 394.081126,12.9632317 C392.212201,11.0918615 389.677395,10.0405381 387.034336,10.0405412 L239.705882,10.0405412 Z" id="Path" fill="#3F3D56"></path>
                <rect id="Rectangle" fill="#C81818" x="28" y="28" width="356" height="200"></rect>
                <circle id="Oval" fill="#C81818" cx="206.5" cy="19.5" r="3.5"></circle>
                <polygon id="Path" fill="#000000" opacity="0.1" points="29 228 29 28 282 228"></polygon>
                <circle id="Oval" fill="#F2F2F2" cx="83" cy="179" r="34"></circle>
                <rect id="Rectangle" fill="#3F3D56" x="288" y="137" width="33" height="7"></rect>
                <rect id="Rectangle" fill="#3F3D56" x="249" y="83" width="113" height="3"></rect>
                <rect id="Rectangle" fill="#3F3D56" x="249" y="91" width="113" height="3"></rect>
                <rect id="Rectangle" fill="#3F3D56" x="249" y="101" width="113" height="3"></rect>
                <rect id="Rectangle" fill="#3F3D56" x="249" y="110" width="113" height="3"></rect>
                <rect id="Rectangle" fill="#3F3D56" x="249" y="119" width="113" height="3"></rect>
                <rect id="Rectangle" fill="#F2F2F2" x="349" y="32" width="14" height="14"></rect>
                <path d="M368,52 L352,52 L352,36 L368,36 L368,52 Z M352.695677,51.3043712 L367.30435,51.3043712 L367.30435,36.6956772 L352.695677,36.6956772 L352.695677,51.3043712 Z" id="Shape" fill="#3F3D56"></path>
                <path d="M407.113474,224.980026 L372.444446,224.980026 L372.444446,222.493103 C372.44445,222.362322 372.392271,222.236897 372.299388,222.144421 C372.206505,222.051946 372.080527,222 371.949171,222 L360.06265,222 C359.931294,222 359.805316,222.051946 359.712433,222.144421 C359.61955,222.236897 359.567371,222.362322 359.567375,222.493103 L359.567375,224.980026 L352.138296,224.980026 L352.138296,222.493103 C352.138302,222.362323 352.086124,222.236898 351.993242,222.144422 C351.90036,222.051946 351.774382,222 351.643027,222 L339.7565,222 C339.625145,222 339.499169,222.051948 339.406287,222.144423 C339.313405,222.236899 339.261227,222.362323 339.261231,222.493103 L339.261231,224.980026 L331.832152,224.980026 L331.832152,222.493103 C331.832156,222.362323 331.779978,222.236899 331.687096,222.144423 C331.594214,222.051948 331.468238,222 331.336882,222 L319.450379,222 C319.319022,222 319.193045,222.051946 319.100162,222.144421 C319.007279,222.236897 318.955099,222.362322 318.955104,222.493103 L318.955104,224.980026 L311.526007,224.980026 L311.526007,222.493103 C311.526012,222.362322 311.473833,222.236897 311.38095,222.144421 C311.288067,222.051946 311.162089,222 311.030732,222 L299.144206,222 C299.012851,222 298.886875,222.051948 298.793993,222.144423 C298.701111,222.236899 298.648933,222.362323 298.648937,222.493103 L298.648937,224.980026 L291.219858,224.980026 L291.219858,222.493103 C291.219862,222.362323 291.167684,222.236899 291.074802,222.144423 C290.98192,222.051948 290.855944,222 290.724588,222 L278.838062,222 C278.706706,222 278.580729,222.051946 278.487847,222.144422 C278.394965,222.236898 278.342787,222.362323 278.342793,222.493103 L278.342793,224.980026 L270.913713,224.980026 L270.913713,222.493103 C270.913718,222.362322 270.861539,222.236897 270.768656,222.144421 C270.675773,222.051946 270.549795,222 270.418438,222 L258.531918,222 C258.400561,222 258.274584,222.051946 258.181701,222.144421 C258.088818,222.236897 258.036638,222.362322 258.036643,222.493103 L258.036643,224.980026 L250.607546,224.980026 L250.607546,222.493103 C250.607551,222.362323 250.555373,222.236899 250.462491,222.144423 C250.369609,222.051948 250.243633,222 250.112277,222 L157.00118,222 C156.869824,222 156.743848,222.051948 156.650966,222.144423 C156.558084,222.236899 156.505906,222.362323 156.505911,222.493103 L156.505911,224.980026 L149.076831,224.980026 L149.076831,222.493103 C149.076836,222.362323 149.024657,222.236899 148.931775,222.144423 C148.838893,222.051948 148.712917,222 148.581562,222 L136.695036,222 C136.56368,222 136.437703,222.051946 136.34482,222.144422 C136.251938,222.236898 136.19976,222.362323 136.199766,222.493103 L136.199766,224.980026 L128.770687,224.980026 L128.770687,222.493103 C128.770691,222.362322 128.718512,222.236897 128.625629,222.144421 C128.532746,222.051946 128.406768,222 128.275412,222 L116.388891,222 C116.257535,222 116.131557,222.051946 116.038674,222.144421 C115.945791,222.236897 115.893612,222.362322 115.893616,222.493103 L115.893616,224.980026 L108.464537,224.980026 L108.464537,222.493103 C108.464543,222.362323 108.412365,222.236898 108.319483,222.144422 C108.226601,222.051946 108.100624,222 107.969268,222 L96.0827415,222 C95.951386,222 95.8254097,222.051948 95.7325279,222.144423 C95.6396461,222.236899 95.5874677,222.362323 95.5874722,222.493103 L95.5874722,224.980026 L88.1584154,224.980026 L88.1584154,222.493103 C88.1584199,222.362323 88.1062415,222.236899 88.0133596,222.144423 C87.9204778,222.051948 87.7945015,222 87.663146,222 L75.7765973,222 C75.6452408,222 75.5192631,222.051946 75.42638,222.144421 C75.333497,222.236897 75.2813178,222.362322 75.2813223,222.493103 L75.2813223,224.980026 L67.8522485,224.980026 L67.8522485,222.493103 C67.852253,222.362322 67.8000738,222.236897 67.7071908,222.144421 C67.6143077,222.051946 67.48833,222 67.3569735,222 L55.4704474,222 C55.3390919,222 55.2131156,222.051948 55.1202338,222.144423 C55.027352,222.236899 54.9751736,222.362323 54.9751781,222.493103 L54.9751781,224.980026 L47.5460986,224.980026 L47.5460986,222.493103 C47.5461031,222.362323 47.4939247,222.236899 47.4010429,222.144423 C47.3081611,222.051948 47.1821848,222 47.0508293,222 L35.1643032,222 C35.0329473,222 34.9069701,222.051946 34.8140879,222.144422 C34.7212058,222.236898 34.6690279,222.362323 34.6690339,222.493103 L34.6690339,224.980026 L11.8865261,224.980026 C5.32178158,224.980032 0,230.278464 0,236.814414 L0,242.165646 C0,248.701585 5.32179226,254 11.8865261,254 L407.113474,254 C413.678209,254 419,248.701586 419,242.165646 L419,236.814414 C419,230.278463 413.67822,224.980029 407.113474,224.980026 L407.113474,224.980026 Z" id="Path" fill="#3F3D56"></path>
                <path d="M92,200 C68.2517558,200 49,180.748244 49,157 C49,133.251756 68.2517558,114 92,114 C115.748244,114 135,133.251756 135,157 C134.973141,180.73711 115.73711,199.973141 92,200 Z M92,115.131579 C68.8767096,115.131579 50.1315789,133.87671 50.1315789,157 C50.1315789,180.12329 68.8767096,198.868421 92,198.868421 C115.12329,198.868421 133.868421,180.12329 133.868421,157 C133.842277,133.887548 115.112452,115.157723 92,115.131579 Z" id="Shape" fill="#3F3D56"></path>
                <rect id="Rectangle" fill="#3F3D56" x="331" y="18" width="145" height="1"></rect>
                <rect id="Rectangle" fill="#3F3D56" x="231" y="317" width="415" height="1"></rect>
                <rect id="Rectangle" fill="#3F3D56" x="109" y="369" width="145" height="1"></rect>
                <rect id="Rectangle" fill="#C81818" x="266" y="311" width="16" height="16"></rect>
                <path d="M292,318 L273,318 L273,299 L292,299 L292,318 Z M273.826086,317.173914 L291.173914,317.173914 L291.173914,299.826086 L273.826086,299.826086 L273.826086,317.173914 Z" id="Shape" fill="#3F3D56"></path>
                <rect id="Rectangle" fill="#C81818" x="452" y="12" width="16" height="16"></rect>
                <path d="M476,19 L457,19 L457,0 L476,0 L476,19 Z M457.826086,18.1739135 L475.173914,18.1739135 L475.173914,0.826086471 L457.826086,0.826086471 L457.826086,18.1739135 Z" id="Shape" fill="#3F3D56"></path>
                <rect id="Rectangle" fill="#C81818" x="611" y="311" width="16" height="16"></rect>
                <path d="M637,318 L618,318 L618,299 L637,299 L637,318 Z M618.826086,317.173914 L636.173914,317.173914 L636.173914,299.826086 L618.826086,299.826086 L618.826086,317.173914 Z" id="Shape" fill="#3F3D56"></path>
                <path d="M600,131.221172 L598.655636,131.221172 L598.655636,94.3436887 C598.655641,88.6829813 596.409941,83.2541211 592.412569,79.2514007 C588.415196,75.2486803 582.993595,73 577.340462,73 L499.315186,73 C493.66205,73 488.240446,75.248674 484.24307,79.251395 C480.245694,83.2541161 478,88.6829789 478,94.3436887 L478,296.656306 C478,302.317016 480.245694,307.745879 484.24307,311.748601 C488.240445,315.751323 493.66205,318 499.315186,318 L577.340473,318 C582.993607,318 588.415209,315.751319 592.412582,311.748597 C596.409955,307.745876 598.655654,302.317014 598.655648,296.656306 L598.655648,157.471165 L600,157.471165 L600,131.221172 Z" id="Path" fill="#3F3D56"></path>
                <path d="M594,94.0120013 L594,296.982313 C594.001499,305.827073 586.826289,313 577.973658,313 L499.026251,313 C490.17364,313 482.998463,305.827053 483,296.982313 L483,94.0120013 C483,85.1692073 490.175588,78 499.026251,78 L508.60444,78 C507.64723,80.3458724 507.921594,83.0138947 509.336238,85.1162931 C510.750882,87.2186915 513.120183,88.4795959 515.655763,88.4794454 L560.666991,88.4794454 C563.20258,88.4796202 565.571896,87.2187193 566.986541,85.1163115 C568.401186,83.0139036 568.67553,80.3458673 567.718286,78 L577.97372,78 C586.824385,78 594,85.1692066 594,94.0120013 Z" id="Path" fill="#131345"></path>
                <rect id="Rectangle" fill="#FFFFFF" x="527" y="212" width="23" height="7"></rect>
                <rect id="Rectangle" fill="#FFFFFF" x="499" y="158" width="80" height="3"></rect>
                <rect id="Rectangle" fill="#FFFFFF" x="499" y="169" width="80" height="3"></rect>
                <rect id="Rectangle" fill="#FFFFFF" x="499" y="177" width="80" height="3"></rect>
                <rect id="Rectangle" fill="#FFFFFF" x="499" y="186" width="80" height="3"></rect>
                <rect id="Rectangle" fill="#FFFFFF" x="499" y="197" width="80" height="3"></rect>
                <rect id="Rectangle" fill="#F2F2F2" x="527" y="119" width="14" height="14"></rect>
                <path d="M533,123 L533,139 L549,139 L549,123 L533,123 Z M548.305985,138.305985 L533.694015,138.305985 L533.694015,123.694015 L548.305985,123.694015 L548.305985,138.305985 Z" id="Shape" fill="#3F3D56"></path>
                <path d="M594,275.400172 L594,297.021917 C594.001499,305.844808 586.826289,312.998412 577.973658,313 L499.026251,313 C490.17364,312.998399 482.998463,305.844788 483,297.021917 L483,188 L549.512356,240.36977 L550.650584,241.26595 L563.023123,251.00481 L564.178425,251.918005 L594,275.400172 Z" id="Path" fill="#000000" opacity="0.1"></path>
                <circle id="Oval" fill="#F2F2F2" cx="532.5" cy="282.5" r="25.5"></circle>
                <path d="M182,370 C154.938047,370 133,348.061953 133,321 C133,293.938047 154.938047,272 182,272 C209.061953,272 231,293.938047 231,321 C230.969402,348.049269 209.049269,369.969402 182,370 L182,370 Z M182,273.126437 C155.560161,273.126437 134.126437,294.560161 134.126437,321 C134.126437,347.439839 155.560161,368.873563 182,368.873563 C208.439839,368.873563 229.873563,347.439839 229.873563,321 C229.843676,294.572551 208.427449,273.156324 182,273.126437 Z" id="Shape" fill="#3F3D56"></path>
                <path d="M538,300 C520.879173,300 507,286.120827 507,269 C507,251.879173 520.879173,238 538,238 C555.120827,238 569,251.879173 569,269 C568.98067,286.112814 555.112814,299.98067 538,300 Z M538,239.127273 C521.501748,239.127273 508.127273,252.501748 508.127273,269 C508.127273,285.498252 521.501748,298.872727 538,298.872727 C554.498252,298.872727 567.872727,285.498252 567.872727,269 C567.854205,252.509427 554.490573,239.145795 538,239.127273 Z" id="Shape" fill="#3F3D56"></path>
            </g>
        </g>
    </g>
</svg>