<?xml version="1.0" encoding="UTF-8"?>
<svg width="378px" height="295px" viewBox="0 0 378 295" version="1.1" xmlns="http://www.w3.org/2000/svg" xmlns:xlink="http://www.w3.org/1999/xlink">
    <title>Group</title>
    <g id="!--OnePager-RWD" stroke="none" stroke-width="1" fill="none" fill-rule="evenodd">
        <g id="Artboard-Copy-3" transform="translate(-40.000000, -9503.000000)" fill-rule="nonzero">
            <g id="Group" transform="translate(40.000000, 9503.955414)">
                <path d="M228.988663,181.753078 L228.375994,189.080625 C228.225028,190.861794 226.685574,192.182537 224.934656,192.03305 L164.913047,186.837574 C163.162476,186.68397 161.864421,185.117613 162.011337,183.336095 L162.624011,176.008548 C162.774972,174.227378 164.314426,172.906632 166.065344,173.056122 L226.086953,178.251598 C227.837524,178.405203 229.135579,179.97156 228.988663,181.753078 L228.988663,181.753078 Z" id="Path" fill="#BF1F1F"></path>
                <path d="M242.696504,216.872502 L235.900259,219.66379 C234.249987,220.341572 232.551466,220.090201 232.114139,219.103461 L217.103657,185.235488 C216.666325,184.248747 217.653207,182.894456 219.303478,182.216669 L226.099724,179.425382 C227.749995,178.7476 229.448516,178.998971 229.885873,179.985711 L244.896356,213.853684 C245.333658,214.840425 244.346776,216.194716 242.696504,216.872502 Z" id="Path" fill="#BF1F1F"></path>
                <path d="M206.065614,206.905542 L93.0064897,206.905542 C95.6729325,187.699487 86.0840723,168.862856 68.9463761,159.641166 C51.8086798,150.419476 30.7199521,152.748685 16.0311,165.485555 C1.34224792,178.222425 -3.86302245,198.693039 2.9701737,216.849877 C9.80336986,235.006715 27.2405046,247.038019 46.7229695,247.038506 C52.4386891,247.044278 58.1067179,246.00366 63.4441112,243.968598 L63.4441112,289.129175 C63.4441112,291.291597 65.2055959,293.044586 67.3784975,293.044586 L206.065614,293.044586 C208.238515,293.044586 210,291.291597 210,289.129175 L210,210.820953 C210,208.658531 208.238515,206.905542 206.065614,206.905542 Z" id="Path" fill="#E6E6E6"></path>
                <path d="M215.53,283.044586 L75.47,283.044586 C73.00244,283.041786 71.0027809,281.028707 71,278.544586 L71,198.544586 C71.0027809,196.060465 73.00244,194.047386 75.47,194.044586 L215.53,194.044586 C217.99756,194.047386 219.997219,196.060465 220,198.544586 L220,278.544586 C219.997219,281.028707 217.99756,283.041786 215.53,283.044586 L215.53,283.044586 Z M75.47,195.044586 C73.5508181,195.04684 71.9955721,196.612524 71.9933333,198.544586 L71.9933333,278.544586 C71.9955721,280.476648 73.5508181,282.042332 75.47,282.044586 L215.53,282.044586 C217.449182,282.042332 219.004428,280.476648 219.006667,278.544586 L219.006667,198.544586 C219.004428,196.612524 217.449182,195.04684 215.53,195.044586 L75.47,195.044586 Z" id="Shape" fill="#3F3D56"></path>
                <path d="M214.988663,187.753078 L214.375994,195.080625 C214.225028,196.861794 212.685574,198.182537 210.934656,198.03305 L150.913047,192.837574 C149.162476,192.68397 147.864421,191.117613 148.011337,189.336095 L148.624011,182.008548 C148.774972,180.227378 150.314426,178.906632 152.065344,179.056122 L212.086953,184.251598 C213.837524,184.405203 215.135579,185.97156 214.988663,187.753078 Z" id="Path" fill="#BF1F1F"></path>
                <path d="M225.696504,222.872502 L218.900259,225.66379 C217.249987,226.341572 215.551466,226.090201 215.114139,225.103461 L200.103657,191.235488 C199.666325,190.248747 200.653207,188.894456 202.303478,188.216669 L209.099724,185.425382 C210.749995,184.7476 212.448516,184.998971 212.885873,185.985711 L227.896356,219.853684 C228.333658,220.840425 227.346776,222.194716 225.696504,222.872502 Z" id="Path" fill="#BF1F1F"></path>
                <polygon id="Rectangle" fill="#070707" transform="translate(334.991157, 11.559523) rotate(-37.441040) translate(-334.991157, -11.559523) " points="327.123225 3.6918162 342.858254 3.69265188 342.85909 19.4272293 327.124061 19.4263936"></polygon>
                <circle id="Oval" fill="#BF1F1F" cx="265.5" cy="87.544586" r="10.5"></circle>
                <path d="M262.266211,94.7355837 C259.561484,91.2024488 259.250942,86.387577 261.47939,82.5361357 C263.707838,78.6846944 268.036422,76.555159 272.446729,77.1405286 C276.857036,77.7258982 280.480533,80.9108944 281.627587,85.2103582 C282.774641,89.509822 281.219361,94.0770476 277.686971,96.7823447 C272.861666,100.469235 265.963155,99.5536115 262.266211,94.7355837 L262.266211,94.7355837 Z M278.973861,81.9399452 C275.601765,77.5350392 269.298012,76.698358 264.894036,80.0711655 C260.490059,83.443973 259.653553,89.7490557 263.025649,94.1539624 C266.397744,98.5588692 272.701496,99.3955517 277.105474,96.0227452 C281.50355,92.6465231 282.33937,86.3466091 278.973861,81.9399452 L278.973861,81.9399452 Z" id="Shape" fill="#3F3D56"></path>
                <path d="M336.407605,24.044586 L326,10.4521913 L339.592395,0.0445859873 L350,13.6369806 L336.407605,24.044586 Z M327.411766,10.6395322 L336.594946,22.6328204 L348.588234,13.4496398 L339.405054,1.45637676 L327.411766,10.6395322 Z" id="Shape" fill="#3F3D56"></path>
                <polygon id="Rectangle" fill="#070707" transform="translate(361.929473, 99.307097) rotate(-37.441040) translate(-361.929473, -99.307097) " points="354.061541 91.4393907 369.79657 91.4402264 369.797405 107.174804 354.062376 107.173968"></polygon>
                <path d="M364.40761,112.044586 L354,98.452187 L367.592395,88.044586 L378,101.636975 L364.40761,112.044586 Z M355.411771,98.6395378 L364.594951,110.632821 L376.588239,101.449644 L367.405054,89.4563611 L355.411771,98.6395378 Z" id="Shape" fill="#3F3D56"></path>
                <rect id="Rectangle" fill="#3F3D56" x="0" y="282.044586" width="307" height="1"></rect>
                <path d="M53.5,234.044586 C27.2664744,234.044586 6,212.778112 6,186.544586 C6,160.31106 27.2664744,139.044586 53.5,139.044586 C79.7335256,139.044586 101,160.31106 101,186.544586 C100.970349,212.76582 79.7212341,234.014935 53.5,234.044586 Z M53.5,140.034169 C27.8130062,140.034169 6.98958333,160.857592 6.98958333,186.544586 C6.98958333,212.23158 27.8130062,233.055003 53.5,233.055003 C79.1869938,233.055003 100.010417,212.23158 100.010417,186.544586 C99.9813904,160.869625 79.1749612,140.063196 53.5,140.034169 L53.5,140.034169 Z" id="Shape" fill="#3F3D56"></path>
                <circle id="Oval" fill="#FFB9B9" cx="156" cy="91.044586" r="26"></circle>
                <path d="M159.032131,99.044586 L159,98.0459626 C161.147855,97.9942789 163.041479,97.8777395 164.46435,96.978589 C165.2806,96.4334508 165.782351,95.6081813 165.83903,94.7175459 C165.889707,94.17241 165.643633,93.6380064 165.173534,93.2722733 C164.228985,92.5823044 162.709161,92.8056316 161.601377,93.2449659 L160.646119,93.6238386 L162.477998,82.044586 L163.621828,82.1801391 L162.06365,92.029841 C163.56884,91.6470687 164.963534,91.8118815 165.918797,92.5096496 C166.662314,93.0710974 167.059622,93.9009131 166.992725,94.7526525 C166.924502,95.9497472 166.248355,97.0596272 165.14534,97.7850922 C163.317132,98.9407242 160.941243,98.9982648 159.032131,99.044586 Z" id="Path" fill="#2F2E41"></path>
                <rect id="Rectangle" fill="#2F2E41" x="168" y="86.044586" width="5" height="1"></rect>
                <rect id="Rectangle" fill="#2F2E41" x="151" y="86.044586" width="5" height="1"></rect>
                <path d="M193.800005,197.044586 L132.2,197.044586 C130.985523,197.043248 130.001326,196.049927 130,194.824191 L130,144.879762 C130.014102,132.274142 140.135597,122.058818 152.625432,122.044586 L172.777776,122.044586 C173.977928,122.045947 174.956096,123.01679 174.977537,124.227875 L196,194.788073 L196,194.824216 C195.998658,196.049939 195.014469,197.043243 193.800005,197.044586 Z" id="Path" fill="#2F2E41"></path>
                <path d="M152.925604,142.044586 L160.632479,142.101754 C162.506083,142.117674 164.01248,143.560033 164,145.326044 L163.495186,205.8705 C163.478298,207.636479 161.948039,209.056346 160.074401,209.044586 L152.367521,208.987418 C150.493917,208.971498 148.98752,207.529139 149,205.763128 L149.504814,145.218672 C149.521702,143.452692 151.051964,142.032823 152.925604,142.044586 L152.925604,142.044586 Z" id="Path" fill="#FFB9B9"></path>
                <path d="M145,138.889656 C145,132.900089 149.70101,128.044586 155.5,128.044586 C161.29899,128.044586 166,132.900089 166,138.889656 L166,163.044586 L145,163.044586 L145,138.889656 Z" id="Path" fill="#2F2E41"></path>
                <path d="M148.419035,79.7030966 C150.896097,77.1318323 154.494671,76.6896871 157.880982,76.9694912 C161.507337,77.2691288 164.943391,78.484402 168.500525,79.1603688 C172.009172,79.8271214 175.813094,80.1257829 179.166688,78.6489419 C182.316524,77.2219851 184.491857,74.2307318 184.8956,70.7712403 C185.327344,67.199794 184.410155,63.5952943 182.326607,60.6752551 C180.02981,57.4011159 176.766725,55.002881 173.374892,52.9898248 C166.063378,48.6504088 157.910904,44.8533507 149.356178,44.1514026 C141.632902,43.5176763 133.443278,45.6709821 128.01032,51.4900099 C122.917445,56.9448018 120.749453,64.5575584 120.298636,71.8886621 C119.723249,81.2454282 121.887776,90.4857369 122.671047,99.7634647 C123.28052,106.982607 123.052277,115.649341 117.240743,120.83375 C112.100314,125.419466 104.272993,125.364762 98.2124619,122.859723 C91.0088244,119.882199 85.9541881,113.198079 82.1310851,106.628621 C81.1578195,104.956201 80.2429756,103.250182 79.3557177,101.52998 C78.9200591,100.685332 77.6544356,101.432326 78.0898351,102.276466 C81.6676988,109.213137 85.8294182,116.141807 92.0878111,120.948576 C97.5597853,125.151336 104.861095,127.17584 111.624657,125.399553 C114.903924,124.573785 117.833183,122.706342 119.980114,120.072834 C122.298174,117.159105 123.514739,113.573851 124.022209,109.905984 C124.565392,105.980124 124.376014,102.024053 123.982548,98.0938494 C123.508836,93.3623379 122.753712,88.6653958 122.236493,83.939046 C121.355652,75.889725 121.234298,67.5357378 124.386931,59.9305389 C125.746,56.5387904 127.857639,53.5064614 130.559624,51.0665051 C133.516898,48.5513241 137.064924,46.844529 140.863685,46.1096861 C149.151264,44.3746296 157.576148,46.7237761 165.078477,50.2637329 C168.865103,51.9701328 172.489393,54.0217481 175.906217,56.3930323 C178.934794,58.5797835 181.755365,61.4439312 182.922006,65.0959871 C183.927427,68.2433505 183.843735,71.96914 181.839251,74.7134977 C179.696989,77.6464983 175.984425,78.3788549 172.580522,78.2022758 C165.589163,77.8395929 158.543584,73.7405949 151.5088,76.079975 C149.946766,76.5893371 148.530715,77.4737833 147.382383,78.6572786 C146.724453,79.3402313 147.76002,80.3871684 148.41903,79.7030966 L148.419035,79.7030966 Z" id="Path" fill="#2F2E41"></path>
            </g>
        </g>
    </g>
</svg>