<?xml version="1.0" encoding="UTF-8"?>
<svg width="673px" height="324px" viewBox="0 0 673 324" version="1.1" xmlns="http://www.w3.org/2000/svg" xmlns:xlink="http://www.w3.org/1999/xlink">
    <title>Group</title>
    <defs>
        <linearGradient x1="89.3226043%" y1="50%" x2="12.0590144%" y2="50%" id="linearGradient-1">
            <stop stop-color="#BD1717" offset="0%"></stop>
            <stop stop-color="#C91818" offset="100%"></stop>
        </linearGradient>
    </defs>
    <g id="!--OnePager-RWD" stroke="none" stroke-width="1" fill="none" fill-rule="evenodd">
        <g id="Artboard-Copy-3" transform="translate(-520.000000, -9473.000000)">
            <g id="Group" transform="translate(520.840764, 9473.000000)">
                <polygon id="Path" fill="#FFB9B9" fill-rule="nonzero" points="47.4774962 280.244729 33.1592357 279 37.9319892 307 54.1592357 298.289156"></polygon>
                <polygon id="Path" fill="#2F2E41" fill-rule="nonzero" points="189.917956 230.375126 153.711324 190 133.021194 208.406613 92.1592357 264.812796 96.8145617 273.12509 146.469497 234.531272 180.090254 285 212.159236 266.594104"></polygon>
                <polygon id="Path" fill="#000000" fill-rule="nonzero" opacity="0.1" points="189.917956 230.375126 153.711324 190 133.021194 208.406613 92.1592357 264.812796 96.8145617 273.12509 146.469497 234.531272 180.090254 285 212.159236 266.594104"></polygon>
                <path d="M193.159236,257.829019 L188.557731,262 L151.234424,247.103644 L142.542694,242.932669 L125.159236,247.103644 C125.159236,247.103644 125.159236,230.419732 141.52014,231.015589 L158.392318,235.78242 L178.332197,237.569982 L193.159236,257.829019 Z" id="Path" fill="#FFB9B9" fill-rule="nonzero"></path>
                <polygon id="Path" fill="#2F2E41" fill-rule="nonzero" points="226.159236 300.73788 214.814362 309 201.406955 309 139.011088 282.442372 47.7378709 301.327828 45.1592357 278.901259 128.697793 237 201.923056 264.737524"></polygon>
                <path d="M151.899972,196.193409 L144.28715,198 L142.628207,195.703508 C139.943007,191.986363 139.396796,186.721746 141.242021,182.342836 L141.242021,182.342836 L162.557916,149.221865 C162.557916,149.221865 168.648174,132.962477 178.291077,139.58667 C187.933981,146.210863 170.170738,157.050455 170.170738,157.050455 L159.512788,176.92304 L160.527829,187.16043 L151.899972,196.193409 Z" id="Path" fill="#FFB9B9" fill-rule="nonzero"></path>
                <ellipse id="Oval" fill="#FFB9B9" fill-rule="nonzero" cx="202.159236" cy="134" rx="20" ry="23"></ellipse>
                <path d="M193.159236,150.069172 L202.601855,176 L225.159236,165.145243 C225.159236,165.145243 217.814973,144.641804 217.814973,144.038759 C217.814973,143.435714 193.159236,150.069172 193.159236,150.069172 Z" id="Path" fill="#FFB9B9" fill-rule="nonzero"></path>
                <path d="M253.159236,226.897601 C253.159236,241.072717 251.257615,255.15928 247.525025,268.639178 L246.028046,274.047363 L238.850696,312.591026 L231.16069,315 L225.521349,306.568575 L214.242661,296.932699 L206.039985,281.274315 L199.006204,267.507006 L196.81197,263.206956 L189.121957,218.038595 L159.899914,198.766786 L150.159236,196.960051 L152.209908,190.335361 L160.925254,176.483733 L169.640581,175.279209 L172.203916,172.870235 L174.254589,174.074722 L182.457265,168.654519 L185.0206,169.859013 L200.010994,171.497101 L209.11599,169.256766 L222.209493,161 L227.572003,162.02985 L246.028008,180.097194 C250.746143,195.077963 253.160749,210.924405 253.159236,226.897601 L253.159236,226.897601 Z" id="Path" fill="#575A89" fill-rule="nonzero"></path>
                <path d="M38.279295,290.547578 C38.279295,290.547578 42.9566697,281.527504 40.9810495,280.474428 C39.0054292,279.421352 30.6152797,275.223233 30.6152797,275.223233 L18.3112711,270.583644 C18.3112711,270.583644 0.557326784,240.560709 0.167624992,266.669085 C-0.222076801,292.777461 13.0946628,299.053354 13.0946628,299.053354 C13.0946628,299.053354 24.9715883,328.136601 31.6993459,323.498958 C38.4271036,318.861316 45.1592357,303.118448 45.1592357,303.118448 C45.1592357,303.118448 33.027016,295.697581 38.279295,290.547578 Z" id="Path" fill="#2F2E41" fill-rule="nonzero"></path>
                <polygon id="Path" fill="#000000" fill-rule="nonzero" opacity="0.1" points="248.159236 221.225918 228.303152 235.92742 198.666189 266 196.429711 261.801297 190.159236 226.518544 191.726854 226.518544 207.925371 193"></polygon>
                <polygon id="Path" fill="#575A89" fill-rule="nonzero" points="207.117176 189 191.398491 222.843486 185.821229 222.843486 182.272007 234.718419 174.159236 237.09398 195.96204 265 226.891328 232.343576 246.159236 217.499551"></polygon>
                <path d="M186.066437,117.375907 L183.911214,118.352444 C183.24154,117.818472 182.7826,116.989486 182.637894,116.052439 C182.493188,115.115393 182.674901,114.149195 183.142054,113.371743 L179.159236,113.152251 C184.330952,105.040568 192.207731,99.9295766 200.793267,99.1146155 C209.378804,98.2996545 217.848998,101.858949 224.05715,108.890426 C224.23848,108.154937 226.215185,109.585887 227.022211,111.036818 C227.29338,109.840019 229.146788,115.625408 229.80233,119.714905 C230.105822,118.353271 231.272721,120.551445 230.25042,122.660685 C230.898169,122.549229 231.190761,124.500945 230.689312,125.588263 C231.397935,125.196196 231.278504,127.525973 230.510171,129.082929 C231.521362,128.977122 222.535261,145.401441 218.896934,155 C217.840484,149.283498 216.652648,143.263914 213.246112,139.005734 C212.667086,138.281943 212.033005,137.622697 211.399954,136.96462 L207.976014,133.405321 C203.994613,129.266532 200.372852,124.158424 195.068944,122.611575 C191.423951,121.548544 189.119241,121.308533 191.105656,116.47151 C189.310978,117.353501 187.63504,118.665117 185.82427,119.484305 C185.848591,118.808447 186.101665,118.052142 186.066437,117.375907 Z" id="Path" fill="#2F2E41" fill-rule="nonzero"></path>
                <ellipse id="Oval" fill="#FFB9B9" fill-rule="nonzero" cx="210.159236" cy="135.5" rx="4" ry="4.5"></ellipse>
                <rect id="Rectangle" fill="#070707" fill-rule="nonzero" x="110.159236" y="42" width="17" height="20"></rect>
                <path d="M138.159236,54 L117.159236,54 L117.159236,28 L138.159236,28 L138.159236,54 Z M118.072279,52.8695659 L137.246193,52.8695659 L137.246193,29.1304341 L118.072279,29.1304341 L118.072279,52.8695659 Z" id="Shape" fill="#3F3D56" fill-rule="nonzero"></path>
                <polygon id="Rectangle" fill="#070707" fill-rule="nonzero" transform="translate(39.713399, 117.761168) rotate(74.063170) translate(-39.713399, -117.761168) " points="29.3699801 108.603658 49.3194116 109.341065 50.0568188 126.918679 30.1073873 126.181271"></polygon>
                <path d="M45.1565939,139 L39.1592357,114.885861 L60.1618774,108 L66.1592357,132.114139 L45.1565939,139 Z M40.3331482,115.634912 L45.8089995,137.652167 L64.9853232,131.365088 L59.5094718,109.347825 L40.3331482,115.634912 Z" id="Shape" fill="#3F3D56" fill-rule="nonzero"></path>
                <polygon id="Rectangle" fill="#BF1F1F" fill-rule="nonzero" transform="translate(45.716362, 20.152219) rotate(133.062810) translate(-45.716362, -20.152219) " points="36.9840641 11.51428 55.8419453 10.1209939 54.4486593 28.7901575 35.590778 30.1834436"></polygon>
                <path d="M34.1592357,37.0580896 L48.1687993,20 L63.1592357,35.9419173 L49.149678,53 L34.1592357,37.0580896 Z M48.2114462,21.4347883 L35.4201102,37.0095603 L49.1070372,51.5651911 L61.8983732,35.9904191 L48.2114462,21.4347883 Z" id="Shape" fill="#3F3D56" fill-rule="nonzero"></path>
                <path d="M636.254405,3.85135193 L475.041592,3.85135193 L475.041592,0 L401.941442,0 L401.941442,3.85135193 L240.064066,3.85135193 C237.171925,3.85135003 234.398237,5.18302708 232.353185,7.55342894 C230.308132,9.9238308 229.159236,13.1387862 229.159236,16.4910406 L229.159236,272.360247 C229.159236,275.712509 230.308121,278.927476 232.353174,281.29789 C234.398227,283.668303 237.171917,285 240.064066,285 L636.254405,285 C642.276986,285 647.159236,279.340986 647.159236,272.360268 L647.159236,16.4910406 C647.159236,13.1387862 646.010339,9.9238308 643.965287,7.55342894 C641.920234,5.18302708 639.146547,3.85135003 636.254405,3.85135193 Z" id="Path" fill="#3F3D56" fill-rule="nonzero"></path>
                <rect id="Rectangle" fill="url(#linearGradient-1)" x="243.159236" y="28" width="388" height="254"></rect>
                <circle id="Oval" fill="#6C63FF" fill-rule="nonzero" cx="437.659236" cy="15.5" r="4.5"></circle>
                <polygon id="Path" fill="#BE1C1C" fill-rule="nonzero" opacity="0.1" points="521.159236 282 243.159236 282 243.159236 28"></polygon>
                <ellipse id="Oval" fill="#F2F2F2" fill-rule="nonzero" cx="303.659236" cy="218" rx="37.5" ry="44"></ellipse>
                <path d="M311.659915,251 C292.852695,251 275.897355,237.965333 268.700144,217.974045 C261.502933,197.982756 265.481219,174.971788 278.779933,159.671119 C292.078646,144.370451 312.078834,139.793287 329.454439,148.073951 C346.830044,156.354616 358.159236,175.862375 358.159236,197.500789 C358.130162,227.033724 337.328728,250.966554 311.659915,251 L311.659915,251 Z M311.659915,144.700908 C286.314748,144.700908 265.76843,168.34022 265.76843,197.500789 C265.76843,226.661358 286.314748,250.30067 311.659915,250.30067 C337.005083,250.30067 357.5514,226.661358 357.5514,197.500789 C357.522768,168.353876 336.993213,144.733851 311.659915,144.700908 L311.659915,144.700908 Z" id="Shape" fill="#3F3D56" fill-rule="nonzero"></path>
                <rect id="Rectangle" fill="#3F3D56" fill-rule="nonzero" x="528.159236" y="163" width="37" height="9"></rect>
                <rect id="Rectangle" fill="#3F3D56" fill-rule="nonzero" x="485.159236" y="96" width="125" height="3"></rect>
                <rect id="Rectangle" fill="#3F3D56" fill-rule="nonzero" x="485.159236" y="108" width="125" height="3"></rect>
                <rect id="Rectangle" fill="#3F3D56" fill-rule="nonzero" x="485.159236" y="119" width="125" height="3"></rect>
                <rect id="Rectangle" fill="#3F3D56" fill-rule="nonzero" x="485.159236" y="132" width="125" height="3"></rect>
                <rect id="Rectangle" fill="#3F3D56" fill-rule="nonzero" x="485.159236" y="143" width="125" height="3"></rect>
                <rect id="Rectangle" fill="#F2F2F2" fill-rule="nonzero" x="594.159236" y="31" width="15" height="18"></rect>
                <path d="M615.159236,56 L596.159236,56 L596.159236,35 L615.159236,35 L615.159236,56 Z M596.985352,55.0869872 L614.333151,55.0869872 L614.333151,35.9130763 L596.985352,35.9130763 L596.985352,55.0869872 Z" id="Shape" fill="#3F3D56" fill-rule="nonzero"></path>
                <path d="M658.109589,276.725032 L620.04812,276.725032 L620.04812,273.616378 C620.048126,273.452903 619.990843,273.296122 619.888872,273.180527 C619.786901,273.064932 619.648597,273 619.504387,273 L606.454741,273 C606.310532,273 606.172228,273.064935 606.070258,273.180529 C605.968287,273.296124 605.911003,273.452904 605.911008,273.616378 L605.911008,276.725032 L597.754978,276.725032 L597.754978,273.616378 C597.754983,273.452904 597.697699,273.296124 597.595728,273.180529 C597.493758,273.064935 597.355455,273 597.211246,273 L584.161599,273 C584.017389,273 583.879084,273.064932 583.777112,273.180527 C583.67514,273.296121 583.617855,273.452903 583.61786,273.616378 L583.61786,276.725032 L575.461836,276.725032 L575.461836,273.616378 C575.461841,273.452903 575.404556,273.296121 575.302585,273.180527 C575.200613,273.064932 575.062308,273 574.918098,273 L561.868451,273 C561.724242,273 561.585939,273.064935 561.483968,273.180529 C561.381998,273.296124 561.324714,273.452904 561.324719,273.616378 L561.324719,276.725032 L553.168689,276.725032 L553.168689,273.616378 C553.168694,273.452904 553.111409,273.296124 553.009439,273.180529 C552.907468,273.064935 552.769165,273 552.624956,273 L539.575297,273 C539.431088,273 539.292783,273.064932 539.190812,273.180527 C539.088842,273.296122 539.031558,273.452903 539.031565,273.616378 L539.031565,276.725032 L530.875547,276.725032 L530.875547,273.616378 C530.875552,273.452903 530.818267,273.296121 530.716295,273.180527 C530.614323,273.064932 530.476018,273 530.331808,273 L517.282168,273 C517.137958,273 516.999653,273.064932 516.897681,273.180527 C516.795709,273.296121 516.738424,273.452903 516.738429,273.616378 L516.738429,276.725032 L508.582399,276.725032 L508.582399,273.616378 C508.582404,273.452904 508.52512,273.296124 508.423149,273.180529 C508.321179,273.064935 508.182876,273 508.038667,273 L494.98902,273 C494.844811,273 494.706508,273.064935 494.604537,273.180529 C494.502567,273.296124 494.445283,273.452904 494.445288,273.616378 L494.445288,276.725032 L486.28927,276.725032 L486.28927,273.616378 C486.289275,273.452904 486.231991,273.296124 486.13002,273.180529 C486.02805,273.064935 485.889746,273 485.745538,273 L383.523299,273 C383.379091,273 383.240787,273.064935 383.138817,273.180529 C383.036846,273.296124 382.979562,273.452904 382.979567,273.616378 L382.979567,276.725032 L374.823537,276.725032 L374.823537,273.616378 C374.823542,273.452903 374.766257,273.296121 374.664285,273.180527 C374.562313,273.064932 374.424008,273 374.279798,273 L361.230189,273 C361.085979,273 360.947674,273.064932 360.845702,273.180527 C360.74373,273.296121 360.686445,273.452903 360.68645,273.616378 L360.68645,276.725032 L352.530389,276.725032 L352.530389,273.616378 C352.530396,273.452903 352.473112,273.296122 352.371141,273.180527 C352.26917,273.064932 352.130866,273 351.986657,273 L338.93701,273 C338.792801,273 338.654498,273.064935 338.552527,273.180529 C338.450557,273.296124 338.393273,273.452904 338.393278,273.616378 L338.393278,276.725032 L330.237248,276.725032 L330.237248,273.616378 C330.237253,273.452904 330.179968,273.296124 330.077998,273.180529 C329.976027,273.064935 329.837724,273 329.693515,273 L316.643868,273 C316.499658,273 316.361353,273.064932 316.259382,273.180527 C316.15741,273.296121 316.100125,273.452903 316.10013,273.616378 L316.10013,276.725032 L307.944106,276.725032 L307.944106,273.616378 C307.944111,273.452903 307.886826,273.296121 307.784854,273.180527 C307.682882,273.064932 307.544577,273 307.400367,273 L294.350721,273 C294.206512,273 294.068208,273.064935 293.966238,273.180529 C293.864267,273.296124 293.806983,273.452904 293.806988,273.616378 L293.806988,276.725032 L285.650946,276.725032 L285.650946,273.616378 C285.650951,273.452904 285.593666,273.296124 285.491696,273.180529 C285.389725,273.064935 285.251422,273 285.107213,273 L272.057579,273 C271.91337,273 271.775065,273.064932 271.673094,273.180527 C271.571123,273.296122 271.51384,273.452903 271.513846,273.616378 L271.513846,276.725032 L263.357816,276.725032 L263.357816,273.616378 C263.357821,273.452903 263.300536,273.296121 263.198565,273.180527 C263.096593,273.064932 262.958288,273 262.814078,273 L249.764437,273 C249.620227,273 249.481922,273.064932 249.379951,273.180527 C249.277979,273.296121 249.220694,273.452903 249.220699,273.616378 L249.220699,276.725032 L224.208876,276.725032 C217.001759,276.72504 211.159236,283.348082 211.159236,291.518017 L211.159236,298.207057 C211.159236,306.376978 217.001772,313 224.208876,313 L658.109589,313 C665.316694,313 671.159236,306.376979 671.159236,298.207057 L671.159236,291.518017 C671.159236,283.348081 665.316707,276.72504 658.109589,276.725032 Z" id="Path" fill="#3F3D56" fill-rule="nonzero"></path>
            </g>
        </g>
    </g>
</svg>