<?xml version="1.0" encoding="UTF-8"?>
<svg width="465px" height="469px" viewBox="0 0 465 469" version="1.1" xmlns="http://www.w3.org/2000/svg" xmlns:xlink="http://www.w3.org/1999/xlink">
    <title>contact_svg</title>
    <g id="!--OnePager-RWD-v2" stroke="none" stroke-width="1" fill="none" fill-rule="evenodd">
        <g id="-" transform="translate(-832.000000, -65.000000)">
            <g id="contact_svg" transform="translate(833.500000, 65.852527)">
                <path d="M0,82.6474727 C20.1839428,84.113622 33.0974156,88.0603556 38.7404185,94.4876735 C61.7402137,120.684186 68.3922564,159.566423 81.2826126,170.950038 C118.374903,203.706646 144.80649,200.190154 182.918808,239.20899 C221.031127,278.227826 253.484777,242.642055 304.70008,263.053524 C322.623635,270.196821 364.762277,278.343652 381.754633,298.304039 C391.198688,309.397675 398.947144,322.512153 405,337.647473" id="Line-6" stroke="#FFFFFF" stroke-width="2" stroke-linecap="square"></path>
                <circle id="Oval" fill="#F0F0F0" fill-rule="nonzero" transform="translate(61.287628, 61.165377) rotate(13.000000) translate(-61.287628, -61.165377) " cx="61.2876283" cy="61.1653771" r="51"></circle>
                <circle id="Oval" fill="#F0F0F0" fill-rule="nonzero" transform="translate(401.469349, 388.068110) rotate(13.000000) translate(-401.469349, -388.068110) " cx="401.469349" cy="388.06811" r="51"></circle>
                <path d="M137.480957,78.6908048 L137.480957,194.336855 C137.480957,199.336282 133.456573,203.40399 128.457417,203.456125 C128.424249,203.460457 128.390898,203.460457 128.357557,203.460457 L114.897707,203.460457 C92.4713565,203.460457 74.2912072,185.280136 74.2912072,162.853785 L74.2912072,78.6907848 C74.2912072,73.6520812 78.3758835,69.5674048 83.4145872,69.5674048 L88.8685872,69.5674048 C86.3418672,76.9380448 120.633987,80.0411748 122.516587,69.5674048 L128.357587,69.5674048 C133.396288,69.5674048 137.480957,73.6521042 137.480957,78.6908048 Z" id="Path" fill="#0F161A" fill-rule="nonzero" transform="translate(105.886082, 136.513931) rotate(13.000000) translate(-105.886082, -136.513931) "></path>
                <path d="M114.622187,62.1624156 C114.622959,61.5023945 115.157816,60.9675326 115.817837,60.9667556 L123.948267,60.9667556 C124.607259,60.9686614 125.140469,61.5034158 125.140469,62.1624106 C125.140469,62.8214054 124.607259,63.3561598 123.948267,63.3580656 L115.817837,63.3580656 C115.15782,63.3572886 114.622964,62.8224328 114.622187,62.1624156 Z" id="Path" fill="#3F3D56" fill-rule="nonzero" transform="translate(119.881328, 62.162411) rotate(13.000000) translate(-119.881328, -62.162411) "></path>
                <path d="M131.165715,217.999509 L79.7497148,217.999509 C71.443875,217.990196 64.7129084,211.259448 64.7033248,202.953609 L64.7033248,122.112309 C64.1305424,121.700987 63.7912941,121.038668 63.7921948,120.333499 L63.7921948,112.203129 C63.7912963,111.498094 64.1305616,110.835925 64.7033248,110.424809 L64.7033248,108.242679 C64.1305654,107.831559 63.7913013,107.169392 63.7921948,106.464359 L63.7921948,98.3334986 C63.7912963,97.6284641 64.1305616,96.966295 64.7033248,96.5551786 L64.7033248,92.6113286 C63.992992,92.229832 63.5507057,91.4879311 63.5529264,90.6816386 L63.5529264,82.5512686 C63.5506952,81.7448473 63.9929588,81.0027961 64.7033248,80.6210886 L64.7033248,69.8144486 C64.7129414,61.5086404 71.4438862,54.7779327 79.7496948,54.7686086 L131.165695,54.7686086 C139.471433,54.7779662 146.202232,61.5087605 146.211595,69.8144986 L146.211595,93.3706086 C146.762422,93.71518 147.097335,94.3190254 147.097335,94.9687486 L147.097335,110.471679 C147.097335,111.121535 146.76245,111.725531 146.211595,112.070309 L146.211595,202.953609 C146.202237,211.259343 139.471449,217.99014 131.165715,217.999509 Z M79.7496948,56.7685586 C72.5479053,56.7766597 66.7116319,62.6127094 66.7033048,69.8144986 L66.7033048,82.3223186 L65.7413948,82.3594286 C65.6375517,82.3631282 65.554752,82.4474258 65.5529148,82.5513186 L65.5529148,90.6816086 C65.5550948,90.7853591 65.6377004,90.8694635 65.7413948,90.8735086 L66.7033048,90.9101286 L66.7033048,97.9594386 L65.9425648,98.1469386 C65.8559425,98.1678279 65.794217,98.2443866 65.7921748,98.3334686 L65.7921748,106.464329 C65.7942215,106.553407 65.855946,106.62996 65.9425648,106.650849 L66.7033048,106.838349 L66.7033048,111.829069 L65.9425648,112.016569 C65.8559425,112.037458 65.794217,112.114017 65.7921748,112.203099 L65.7921748,120.333469 C65.7940514,120.422711 65.8558023,120.499494 65.9425648,120.520469 L66.7033048,120.707969 L66.7033048,202.953609 C66.7116264,210.155402 72.5479014,215.991458 79.7496948,215.999509 L131.165695,215.999509 C138.36732,215.991243 144.203329,210.155234 144.211595,202.953609 L144.211595,110.357909 L145.097335,110.357909 L145.097335,95.0830086 L144.211595,95.0830086 L144.211595,69.8144486 C144.203329,62.6128253 138.367318,56.7768192 131.165695,56.7685586 L79.7496948,56.7685586 Z" id="Shape" fill="#3F3D56" fill-rule="nonzero" transform="translate(105.325126, 136.384059) rotate(13.000000) translate(-105.325126, -136.384059) "></path>
                <circle id="Oval" fill="#3F3D56" fill-rule="nonzero" transform="translate(128.271044, 64.099324) rotate(13.000000) translate(-128.271044, -64.099324) " cx="128.271044" cy="64.099324" r="1.19565"></circle>
                <circle id="Oval" fill="#FFFFFF" fill-rule="nonzero" transform="translate(96.062304, 180.527418) rotate(13.000000) translate(-96.062304, -180.527418) " cx="96.062304" cy="180.527418" r="8.52402"></circle>
                <path d="M383.02157,368.551647 L360.25157,346.071647 C358.01294,343.844004 354.979687,342.599039 351.82157,342.611552 L351.74157,342.611552 C348.559301,342.62087 345.512971,343.902777 343.28157,346.171647 C332.700326,356.880073 332.483843,374.039688 342.79157,385.011647 C343.03157,385.271647 343.28157,385.521647 343.53157,385.771647 C344.9164,387.148184 346.445181,388.371879 348.09157,389.421647 C352.593077,392.330151 357.842218,393.869111 363.20157,393.851794 L363.37157,393.851794 C370.801668,393.826329 377.913052,390.830546 383.12157,385.531647 C387.77395,380.811512 387.729222,373.216658 383.02157,368.551647 L383.02157,368.551647 Z M381.70157,384.121647 C372.987077,392.900572 359.305894,394.353884 348.94157,387.601647 C347.5034,386.649925 346.1605,385.56154 344.93157,384.351647 C334.714773,374.261206 334.611801,357.799107 344.70157,347.581647 C346.561959,345.685768 349.105374,344.615805 351.76157,344.611586 L351.82157,344.611586 C354.450961,344.602429 356.976249,345.638445 358.84157,347.491647 L381.61157,369.981647 C385.536468,373.863389 385.576738,380.190257 381.70157,384.121647 L381.70157,384.121647 Z" id="Shape" fill="#3F3D56" fill-rule="nonzero" transform="translate(360.891379, 368.231698) rotate(13.000000) translate(-360.891379, -368.231698) "></path>
                <path d="M326.824142,279.858849 L304.054142,257.368849 C301.812888,255.14516 298.781348,253.900898 295.624142,253.908811 L295.554142,253.908811 C292.367704,253.921666 289.318419,255.20688 287.084142,257.478789 C278.444284,266.253466 276.530468,279.633957 282.364142,290.478789 L282.374142,290.488789 C283.546543,292.649723 285.002795,294.644083 286.704142,296.418789 C286.894142,296.638789 287.114142,296.858789 287.334142,297.078789 C292.56309,302.269174 299.636529,305.174785 307.004142,305.158854 L307.184142,305.158854 C314.615065,305.127773 321.725526,302.128778 326.934142,296.828789 C329.170147,294.56396 330.414761,291.503573 330.394384,288.321004 C330.373502,285.138436 329.089319,282.094441 326.824142,279.858789 L326.824142,279.858849 Z M325.504142,295.428849 C320.66958,300.346995 314.070541,303.129896 307.174142,303.158849 L307.004142,303.158849 C296.519405,303.154811 287.063022,296.85373 283.022208,287.17894 C278.981394,277.504151 281.146933,266.349007 288.514142,258.888849 C292.39601,254.964247 298.722632,254.923979 302.654142,258.798849 L325.424142,281.278849 C329.346292,285.16727 329.38207,291.496343 325.504132,295.428859 L325.504142,295.428849 Z" id="Shape" fill="#3F3D56" fill-rule="nonzero" transform="translate(304.703832, 279.533846) rotate(13.000000) translate(-304.703832, -279.533846) "></path>
                <path d="M384.407743,375.995932 L359.304543,351.202362 C355.87709,347.824778 350.362384,347.859001 346.977113,351.278862 C341.443643,356.868988 339.315628,364.988045 341.395712,372.573694 C343.475795,380.159342 349.447474,386.057358 357.058355,388.043132 C364.669236,390.028907 372.761256,387.800287 378.282273,382.197862 L384.407743,375.995932 Z" id="Path" fill="#0F161A" fill-rule="nonzero" transform="translate(362.509871, 368.723844) rotate(13.000000) translate(-362.509871, -368.723844) "></path>
                <path d="M328.214732,287.297869 L303.111532,262.504309 C299.684083,259.126714 294.169368,259.160937 290.784102,262.580809 C285.250631,268.170936 283.122617,276.289992 285.2027,283.875641 C287.282784,291.46129 293.254462,297.359305 300.865343,299.34508 C308.476224,301.330854 316.568244,299.102235 322.089262,293.499809 L328.214732,287.297869 Z" id="Path" fill="#0F161A" fill-rule="nonzero" transform="translate(306.316859, 280.025787) rotate(13.000000) translate(-306.316859, -280.025787) "></path>
                <path d="M363.283329,380.042048 L362.683329,381.621998 C359.863329,380.552058 357.129995,379.478725 354.483329,378.401998 C307.603329,359.271998 285.223329,336.881998 270.253329,294.381998 L270.243329,294.371998 C269.533329,292.371998 268.843329,290.325348 268.173329,288.232048 L269.753329,287.722048 C270.281632,289.73523 271.054026,291.676289 272.053329,293.502048 C272.873329,295.832048 273.716662,298.102048 274.583329,300.312048 C288.653329,336.182048 309.403329,356.682048 349.183329,373.992048 C351.183329,374.862095 353.233329,375.725428 355.333329,376.582048 C357.771769,378.170775 360.458876,379.340258 363.283329,380.042048 L363.283329,380.042048 Z" id="Path" fill="#3F3D56" fill-rule="nonzero" transform="translate(315.728329, 334.672023) rotate(13.000000) translate(-315.728329, -334.672023) "></path>
                <rect id="Rectangle" fill="#3F3D56" fill-rule="nonzero" transform="translate(316.997997, 333.856960) rotate(-32.355270) translate(-316.997997, -333.856960) " x="315.997737" y="297.356875" width="2.00052" height="73.00017"></rect>
                <path d="M413,439.647473 C413,456.634747 405.895549,465.128383 391.686648,465.128383 C370.373297,465.128383 376.38438,468.495698 333.094493,458.322971 C289.804607,448.150243 261.269126,457.918126 206.5,465.128383 C151.730874,472.338641 106.194207,449.057429 90.901866,439.647473 C74.5162345,429.564773 44.2156125,427.23144 0,432.647473" id="Line-7" stroke="#FFFFFF" stroke-width="2" stroke-linecap="square"></path>
            </g>
        </g>
    </g>
</svg>