<?xml version="1.0" encoding="UTF-8"?>
<svg width="290px" height="319px" viewBox="0 0 290 319" version="1.1" xmlns="http://www.w3.org/2000/svg" xmlns:xlink="http://www.w3.org/1999/xlink">
    <title>Group</title>
    <g id="!--OnePager-RWD-v3" stroke="none" stroke-width="1" fill="none" fill-rule="evenodd">
        <g id="Artboard" transform="translate(-499.000000, -259.000000)" fill-rule="nonzero">
            <g id="Group" transform="translate(499.000000, 259.905093)">
                <polygon id="Path" fill="#FFB9B9" points="59.3182605 274.339635 45 273.094907 49.7727535 301.094907 66 292.384063"></polygon>
                <polygon id="Path" fill="#2F2E41" points="201.75872 224.470032 165.552088 184.094907 144.861958 202.50152 104 258.907703 108.655326 267.219997 158.310261 228.626179 191.931018 279.094907 224 260.689011"></polygon>
                <polygon id="Path" fill="#000000" opacity="0.1" points="201.75872 224.470032 165.552088 184.094907 144.861958 202.50152 104 258.907703 108.655326 267.219997 158.310261 228.626179 191.931018 279.094907 224 260.689011"></polygon>
                <path d="M205,251.923925 L200.398495,256.094907 L163.075188,241.198551 L154.383459,237.027576 L137,241.198551 C137,241.198551 137,224.514639 153.360904,225.110496 L170.233083,229.877326 L190.172962,231.664889 L205,251.923925 Z" id="Path" fill="#FFB9B9"></path>
                <polygon id="Path" fill="#2F2E41" points="238 294.832787 226.655127 303.094907 213.247719 303.094907 150.851852 276.537278 59.5786353 295.422735 57 272.996166 140.538557 231.094907 213.76382 258.832431"></polygon>
                <path d="M163.740736,190.288315 L156.127914,192.094907 L154.468971,189.798414 C151.783771,186.08127 151.237561,180.816653 153.082786,176.437743 L153.082786,176.437743 L174.398681,143.316772 C174.398681,143.316772 180.488938,127.057384 190.131842,133.681577 C199.774745,140.30577 182.011503,151.145362 182.011503,151.145362 L171.353552,171.017947 L172.368593,181.255337 L163.740736,190.288315 Z" id="Path" fill="#FFB9B9"></path>
                <ellipse id="Oval" fill="#FFB9B9" cx="214" cy="128.094907" rx="20" ry="23"></ellipse>
                <path d="M205,144.164079 L214.44262,170.094907 L237,159.24015 C237,159.24015 229.655737,138.736711 229.655737,138.133666 C229.655737,137.530621 205,144.164079 205,144.164079 Z" id="Path" fill="#FFB9B9"></path>
                <path d="M265,220.992508 C265,235.167624 263.098379,249.254187 259.36579,262.734085 L257.86881,268.14227 L250.691461,306.685932 L243.001454,309.094907 L237.362113,300.663482 L226.083426,291.027606 L217.88075,275.369222 L210.846968,261.601913 L208.652734,257.301863 L200.962721,212.133502 L171.740679,192.861693 L162,191.054958 L164.050672,184.430268 L172.766018,170.57864 L181.481345,169.374116 L184.044681,166.965142 L186.095353,168.169629 L194.298029,162.749425 L196.861365,163.95392 L211.851759,165.592008 L220.956755,163.351673 L234.050257,155.094907 L239.412767,156.124757 L257.868773,174.192101 C262.586907,189.17287 265.001513,205.019312 265,220.992508 L265,220.992508 Z" id="Path" fill="#575A89"></path>
                <path d="M50.1200594,284.642485 C50.1200594,284.642485 54.797434,275.622411 52.8218138,274.569335 C50.8461935,273.516259 42.456044,269.31814 42.456044,269.31814 L30.1520354,264.678551 C30.1520354,264.678551 12.3980911,234.655616 12.0083893,260.763992 C11.6186875,286.872367 24.9354272,293.148261 24.9354272,293.148261 C24.9354272,293.148261 36.8123526,322.231508 43.5401103,317.593865 C50.2678679,312.956223 57,297.213355 57,297.213355 C57,297.213355 44.8677803,289.792488 50.1200594,284.642485 Z" id="Path" fill="#2F2E41"></path>
                <polygon id="Path" fill="#000000" opacity="0.1" points="260 215.320825 240.143917 230.022327 210.506953 260.094907 208.270475 255.896204 202 220.613451 203.567619 220.613451 219.766136 187.094907"></polygon>
                <polygon id="Path" fill="#575A89" points="218.957941 183.094907 203.239255 216.938393 197.661993 216.938393 194.112771 228.813326 186 231.188887 207.802804 259.094907 238.732092 226.438483 258 211.594458"></polygon>
                <path d="M197.907202,111.470814 L195.751978,112.447351 C195.082304,111.913378 194.623364,111.084393 194.478658,110.147346 C194.333952,109.2103 194.515665,108.244102 194.982818,107.466649 L191,107.247157 C196.171716,99.1354748 204.048495,94.0244834 212.634032,93.2095224 C221.219568,92.3945613 229.689763,95.9538561 235.897915,102.985333 C236.079244,102.249844 238.05595,103.680794 238.862976,105.131724 C239.134144,103.934926 240.987552,109.720315 241.643094,113.809812 C241.946587,112.448178 243.113485,114.646352 242.091184,116.755592 C242.738933,116.644136 243.031526,118.595852 242.530076,119.68317 C243.2387,119.291103 243.119268,121.62088 242.350935,123.177836 C243.362126,123.072028 234.376026,139.496348 230.737698,149.094907 C229.681248,143.378405 228.493412,137.358821 225.086876,133.100641 C224.50785,132.376849 223.87377,131.717604 223.240718,131.059527 L219.816778,127.500228 C215.835378,123.361439 212.213616,118.253331 206.909708,116.706482 C203.264716,115.643451 200.960005,115.40344 202.946421,110.566417 C201.151742,111.448408 199.475804,112.760024 197.665034,113.579211 C197.689356,112.903353 197.942429,112.147049 197.907202,111.470814 Z" id="Path" fill="#2F2E41"></path>
                <ellipse id="Oval" fill="#FFB9B9" cx="222" cy="129.594907" rx="4" ry="4.5"></ellipse>
                <rect id="Rectangle" fill="#070707" x="122" y="36.0949068" width="17" height="20"></rect>
                <path d="M150,48.0949068 L129,48.0949068 L129,22.0949068 L150,22.0949068 L150,48.0949068 Z M129.913043,46.9644727 L149.086957,46.9644727 L149.086957,23.225341 L129.913043,23.225341 L129.913043,46.9644727 Z" id="Shape" fill="#3F3D56"></path>
                <polygon id="Rectangle" fill="#070707" transform="translate(51.554164, 111.856075) rotate(74.063170) translate(-51.554164, -111.856075) " points="41.2107444 102.698565 61.1601759 103.435972 61.8975831 121.013585 41.9481516 120.276178"></polygon>
                <path d="M56.9973582,133.094907 L51,108.980768 L72.0026418,102.094907 L78,126.209045 L56.9973582,133.094907 Z M52.1739125,109.729819 L57.6497638,131.747074 L76.8260875,125.459995 L71.3502362,103.442732 L52.1739125,109.729819 Z" id="Shape" fill="#3F3D56"></path>
                <polygon id="Rectangle" fill="#BF1F1F" transform="translate(57.557126, 14.247126) rotate(133.062810) translate(-57.557126, -14.247126) " points="48.8248284 5.60918684 67.6827097 4.21590078 66.2894236 22.8850644 47.4315424 24.2783504"></polygon>
                <path d="M46,31.1529964 L60.0095637,14.0949068 L75,30.0368241 L60.9904424,47.0949068 L46,31.1529964 Z M60.0522106,15.5296951 L47.2608746,31.1044672 L60.9478015,45.660098 L73.7391375,30.0853259 L60.0522106,15.5296951 Z" id="Shape" fill="#3F3D56"></path>
                <rect id="Rectangle" fill="#3F3D56" x="0" y="307.139493" width="290" height="1"></rect>
            </g>
        </g>
    </g>
</svg>