<?xml version="1.0" encoding="UTF-8"?>
<svg width="471px" height="1003px" viewBox="0 0 471 1003" version="1.1" xmlns="http://www.w3.org/2000/svg" xmlns:xlink="http://www.w3.org/1999/xlink">
    <title>Group 3</title>
    <g id="!--OnePager-RWD" stroke="none" stroke-width="1" fill="none" fill-rule="evenodd">
        <g id="Artboard-Copy-3" transform="translate(-670.000000, -6471.000000)">
            <g id="Group-3" transform="translate(670.000000, 6471.000000)">
                <polygon id="Polygon-Copy" fill="#000000" points="380 262 458.808312 307.5 458.808312 398.5 380 444 301.191688 398.5 301.191688 307.5"></polygon>
                <polygon id="Polygon-Copy-2" fill="#000000" points="108 12 186.808312 57.5 186.808312 148.5 108 194 29.1916883 148.5 29.1916883 57.5"></polygon>
                <polygon id="Polygon-Copy-4" fill="#000000" points="103 531 181.808312 576.5 181.808312 667.5 103 713 24.1916883 667.5 24.1916883 576.5"></polygon>
                <polygon id="Polygon-Copy-6" fill="#000000" points="375 821 453.808312 866.5 453.808312 957.5 375 1003 296.191688 957.5 296.191688 866.5"></polygon>
                <polygon id="Polygon" fill="#726E6E" points="371.5 250 453.339401 297.25 453.339401 391.75 371.5 439 289.660599 391.75 289.660599 297.25"></polygon>
                <polygon id="Polygon-Copy-3" fill="#BD1717" points="99.5 0 181.339401 47.25 181.339401 141.75 99.5 189 17.6605993 141.75 17.6605993 47.25"></polygon>
                <polygon id="Polygon-Copy-5" fill="#726E6E" points="94.5 519 176.339401 566.25 176.339401 660.75 94.5 708 12.6605993 660.75 12.6605993 566.25"></polygon>
                <polygon id="Polygon-Copy-7" fill="#726E6E" points="366.5 809 448.339401 856.25 448.339401 950.75 366.5 998 284.660599 950.75 284.660599 856.25"></polygon>
                <g id="Group" transform="translate(335.000000, 872.000000)">
                    <path d="M60.5,22 L5.5,22 C2.475,22 0,19.525 0,16.5 L0,5.5 C0,2.475 2.475,0 5.5,0 L60.5,0 C63.525,0 66,2.475 66,5.5 L66,16.5 C66,19.525 63.525,22 60.5,22 Z" id="Path" stroke="#FFFFFF" stroke-width="3" stroke-linecap="round" stroke-linejoin="round"></path>
                    <line x1="11" y1="9" x2="11" y2="14" id="Path" stroke="#FFFFFF" stroke-width="3" stroke-linecap="round" stroke-linejoin="round"></line>
                    <line x1="20" y1="9" x2="20" y2="14" id="Path" stroke="#FFFFFF" stroke-width="3" stroke-linecap="round" stroke-linejoin="round"></line>
                    <path d="M47,16 C46.1,16 45.5,15.7505055 44.9,15.2515164 C44.3,14.7525273 44,14.2535382 44,13.5050546 C44,13.25556 44,12.7565709 44.3,12.5070764 C44.6,12.2575818 44.6,12.0080873 44.9,11.7585927 C45.2,11.5090982 45.5,11.2596037 45.8,11.2596037 C47,10.7606146 48.2,11.0101091 49.1,11.7585927 C49.4,12.0080873 49.7,12.2575818 49.7,12.5070764 C50,12.7565709 50,13.25556 50,13.5050546 C50,14.2535382 49.7,14.7525273 49.1,15.2515164 C48.5,15.7505055 47.9,16 47,16 Z" id="Path" fill="#FFFFFF" fill-rule="nonzero"></path>
                    <path d="M54.5,16 C53.75,16 53.25,15.7505055 52.75,15.2515164 C52.25,14.7525273 52,14.2535382 52,13.5050546 C52,13.25556 52,12.7565709 52.25,12.5070764 C52.5,12.2575818 52.5,12.0080873 52.75,11.7585927 C53,11.5090982 53.25,11.2596037 53.5,11.2596037 C54.5,10.7606146 55.5,11.0101091 56.25,11.7585927 C56.5,12.0080873 56.75,12.2575818 56.75,12.5070764 C57,12.7565709 57,13.25556 57,13.5050546 C57,14.2535382 56.75,14.7525273 56.25,15.2515164 C55.75,15.7505055 55.25,16 54.5,16 Z" id="Path" fill="#FFFFFF" fill-rule="nonzero"></path>
                    <path d="M60.5,44 L5.5,44 C2.475,44 0,41.525 0,38.5 L0,27.5 C0,24.475 2.475,22 5.5,22 L60.5,22 C63.525,22 66,24.475 66,27.5 L66,38.5 C66,41.525 63.525,44 60.5,44 Z" id="Path" stroke="#FFFFFF" stroke-width="3" stroke-linecap="round" stroke-linejoin="round"></path>
                    <line x1="11" y1="30" x2="11" y2="35" id="Path" stroke="#FFFFFF" stroke-width="3" stroke-linecap="round" stroke-linejoin="round"></line>
                    <line x1="20" y1="30" x2="20" y2="35" id="Path" stroke="#FFFFFF" stroke-width="3" stroke-linecap="round" stroke-linejoin="round"></line>
                    <path d="M47,39 C46.1,39 45.5,38.6428221 44.9,37.9284663 C44.3,37.2141104 44,36.4997546 44,35.4282208 C44,35.0710429 44,34.3566871 44.3,33.9995092 C44.6,33.6423313 44.6,33.2851534 44.9,32.9279754 C45.2,32.5707975 45.5,32.2136196 45.8,32.2136196 C47,31.8564417 48.2,31.8564417 49.1,32.9279754 C49.4,33.2851534 49.7,33.6423313 49.7,33.9995092 C50,34.3566871 50,35.0710429 50,35.4282208 C50,36.4997546 49.7,37.2141104 49.1,37.9284663 C48.5,38.6428221 47.9,39 47,39 Z" id="Path" fill="#FFFFFF" fill-rule="nonzero"></path>
                    <path d="M54.5,39 C53.75,39 53.25,38.6428221 52.75,37.9284663 C52.25,37.2141104 52,36.4997546 52,35.4282208 C52,35.0710429 52,34.3566871 52.25,33.9995092 C52.5,33.6423313 52.5,33.2851534 52.75,32.9279754 C53,32.5707975 53.25,32.2136196 53.5,32.2136196 C54.5,31.8564417 55.5,31.8564417 56.25,32.9279754 C56.5,33.2851534 56.75,33.6423313 56.75,33.9995092 C57,34.3566871 57,35.0710429 57,35.4282208 C57,36.4997546 56.75,37.2141104 56.25,37.9284663 C55.75,38.6428221 55.25,39 54.5,39 Z" id="Path" fill="#FFFFFF" fill-rule="nonzero"></path>
                    <ellipse id="Oval" stroke="#FFFFFF" stroke-width="3" stroke-linecap="round" stroke-linejoin="round" cx="33" cy="65.5" rx="6" ry="5.5"></ellipse>
                    <line x1="33.5" y1="44" x2="33.5" y2="60" id="Path" stroke="#FFFFFF" stroke-width="3" stroke-linecap="round" stroke-linejoin="round"></line>
                    <line x1="14" y1="66" x2="27" y2="66" id="Path" stroke="#FFFFFF" stroke-width="3" stroke-linecap="round" stroke-linejoin="round"></line>
                    <line x1="39" y1="66" x2="52" y2="66" id="Path" stroke="#FFFFFF" stroke-width="3" stroke-linecap="round" stroke-linejoin="round"></line>
                </g>
                <g id="Group" transform="translate(59.000000, 589.000000)" fill="#FFFFFF" fill-rule="nonzero">
                    <path d="M19.1729452,12.624 C20.5853904,11.1950769 20.5853904,8.88 19.1729452,7.45107692 L19.1254999,7.40307692 C17.7130547,5.97415385 15.4246737,5.97415385 14.0122284,7.40307692 L1.05933668,20.5033846 C-0.353112228,21.9323077 -0.353112228,24.2510769 1.05933668,25.68 L14.0122284,38.7803077 C15.4246737,40.2092308 17.7130547,40.2092308 19.1254999,38.7803077 L19.1729452,38.7323077 C20.5853904,37.3033846 20.5853904,34.9883077 19.1729452,33.5593846 L11.3844211,25.68 C9.97197592,24.2510769 9.97197592,21.9323077 11.3844211,20.5033846 L19.1729452,12.624 Z M55.9877716,7.40307692 C54.5789774,5.97415385 52.2869453,5.97415385 50.8745001,7.40307692 L50.8270548,7.45107692 C49.4146096,8.88 49.4146096,11.1950769 50.8270548,12.624 L58.6192299,20.5033846 C60.0316751,21.9323077 60.0316751,24.2510769 58.6192299,25.68 L50.8270548,33.5593846 C49.4146096,34.9883077 49.4146096,37.3033846 50.8270548,38.7323077 L50.8745001,38.7803077 C52.2869453,40.2092308 54.5789774,40.2092308 55.9877716,38.7803077 L68.9406633,25.68 C70.3531122,24.2510769 70.3531122,21.9323077 68.9406633,20.5033846 L55.9877716,7.40307692 Z M28.5415054,45.1888985 C27.9372986,46.4460923 26.8772186,48 25.5096102,48 L25.4372487,48 C22.7780077,48 21.0449809,44.3804308 22.2208335,41.9401846 L40.7631625,2.32899692 C41.367373,1.07549538 43.6069235,0.0927138462 43.6069235,0.0927138462 L43.6069235,0 C47.2249397,0 48.3646133,2.75918769 47.1923749,5.19939692 L28.5415054,45.1888985 Z" id="code-[#1115]"></path>
                </g>
                <g id="Group" transform="translate(336.000000, 312.000000)" fill="#FFFFFF" fill-rule="nonzero">
                    <path d="M70.744186,34.1666667 L68.6511628,34.1666667 C68.2576744,21.3416667 60.8902326,10.6166667 49.9060465,5.83333333 L63.627907,5.83333333 L63.627907,7.91666667 C63.627907,8.6070226 64.190154,9.16666667 64.8837209,9.16666667 C65.5772878,9.16666667 66.1395349,8.6070226 66.1395349,7.91666667 L66.1395349,1.25 C66.1395349,0.559644063 65.5772878,0 64.8837209,0 C64.190154,0 63.627907,0.559644063 63.627907,1.25 L63.627907,3.33333333 L41.0232558,3.33333333 L41.0232558,1.25 C41.0232558,0.559644063 40.4610088,0 39.7674419,0 L33.0697674,0 C32.3762005,0 31.8139535,0.559644063 31.8139535,1.25 L31.8139535,3.33333333 L9.20930233,3.33333333 L9.20930233,1.25 C9.20930233,0.559644063 8.64705527,0 7.95348837,0 C7.25992148,0 6.69767442,0.559644063 6.69767442,1.25 L6.69767442,7.91666667 C6.69767442,8.6070226 7.25992148,9.16666667 7.95348837,9.16666667 C8.64705527,9.16666667 9.20930233,8.6070226 9.20930233,7.91666667 L9.20930233,5.83333333 L22.8893023,5.83333333 C11.1290049,10.823516 3.45676442,22.2753254 3.34883721,35 L1.25581395,35 C0.562247058,35 0,35.5596441 0,36.25 L0,42.9166667 C0,43.6070226 0.562247058,44.1666667 1.25581395,44.1666667 L7.95348837,44.1666667 C8.64705527,44.1666667 9.20930233,43.6070226 9.20930233,42.9166667 L9.20930233,36.25 C9.20930233,35.5596441 8.64705527,35 7.95348837,35 L5.86046512,35 C6.03377697,20.2335106 17.1005983,7.84630643 31.8139535,5.95 L31.8139535,7.91666667 C31.8139535,8.6070226 32.3762005,9.16666667 33.0697674,9.16666667 L35.2297674,9.16666667 L22.1944186,42.0916667 C22.084295,42.3787827 22.084295,42.6962173 22.1944186,42.9833333 L26.8660465,55.6416667 L26.7906977,63.7416667 C26.7884676,64.0746288 26.919791,64.3947162 27.1555439,64.6309421 C27.3912969,64.867168 27.7119934,65 28.0465116,65 L43.9534884,65 C44.6470553,65 45.2093023,64.4403559 45.2093023,63.75 L45.2093023,55.6833333 L50.9106977,43.0583333 C51.0432868,42.7467314 51.0432868,42.3949353 50.9106977,42.0833333 L37.6074419,9.16666667 L39.7674419,9.16666667 C40.4610088,9.16666667 41.0232558,8.6070226 41.0232558,7.91666667 L41.0232558,5.95 C55.255814,7.89166667 65.6288372,19.5333333 66.1395349,34.1666667 L64.0465116,34.1666667 C63.3529447,34.1666667 62.7906977,34.7263107 62.7906977,35.4166667 L62.7906977,42.0833333 C62.7906977,42.7736893 63.3529447,43.3333333 64.0465116,43.3333333 L70.744186,43.3333333 C71.4377529,43.3333333 72,42.7736893 72,42.0833333 L72,35.4166667 C72,34.7263107 71.4377529,34.1666667 70.744186,34.1666667 Z M6.69767442,41.6666667 L2.51162791,41.6666667 L2.51162791,37.5 L6.69767442,37.5 L6.69767442,41.6666667 Z M29.3023256,62.5 L29.3525581,56.6666667 L42.6976744,56.6666667 L42.6976744,62.5 L29.3023256,62.5 Z M43.1413953,54.1666667 L28.9925581,54.1666667 L24.7060465,42.5666667 L35.1627907,16.1583333 L35.1627907,38.75 C35.1627907,39.4403559 35.7250378,40 36.4186047,40 C37.1121715,40 37.6744186,39.4403559 37.6744186,38.75 L37.6744186,16.0333333 L48.3990698,42.5 L43.1413953,54.1666667 Z M38.5116279,6.66666667 L34.3255814,6.66666667 L34.3255814,2.5 L38.5116279,2.5 L38.5116279,6.66666667 Z M69.4883721,40.8333333 L65.3023256,40.8333333 L65.3023256,36.6666667 L69.4883721,36.6666667 L69.4883721,40.8333333 Z" id="Shape"></path>
                </g>
                <g id="Group" transform="translate(63.000000, 59.000000)" fill="#FFFFFF" fill-rule="nonzero">
                    <path d="M60.6512438,9.76520076 C50.4925046,0.218705067 35.7355795,-2.60345854 22.7716494,2.52098069 C9.8077192,7.64541992 0.967797097,19.7950489 0.0804272924,33.7078991 C-0.587304976,43.6471976 2.92547905,53.4138255 9.77087722,60.6503521 C16.5841863,67.8783016 26.0718295,71.98304 36.0043178,72 C37.0707314,72 37.9352305,71.1354196 37.9352305,70.0689057 C37.9352305,69.0023917 37.0707314,68.1378114 36.0043178,68.1378114 C18.6565622,68.1384209 4.43991262,54.3685385 3.88516636,37.0280244 C3.33042011,19.6875104 16.637861,5.03692982 33.9501762,3.92850872 C42.8111583,3.36180168 51.5117266,6.48676455 57.9875961,12.5619729 C64.4634655,18.6371812 68.1374902,27.1211969 68.1379759,36.0011141 C68.1537684,41.0664273 66.959246,46.0622112 64.6538882,50.5724189 C62.890299,53.8412838 58.8663965,55.1427286 55.5228531,53.525656 L54.4989368,53.040758 C55.0794088,52.4571693 55.6180038,51.8995832 56.011242,51.4777062 C56.2556333,51.2145698 56.3758864,50.8594976 56.3416888,50.5019931 C56.3074912,50.1444887 56.1221056,49.8186583 55.8322621,49.6066344 L46.2270537,43.4385478 C45.9139086,43.2066546 45.5197095,43.1125891 45.1356092,43.1781028 C44.751509,43.2436164 44.4107691,43.463036 44.1921807,43.7856238 C43.4217257,44.9231808 41.6641263,47.4140725 41.6641263,47.4140725 C41.6641263,47.4140725 37.5525845,49.6282319 30.2784612,42.3533261 C30.1683829,42.2432375 30.080149,42.1407784 29.9743945,42.0321022 C29.8657344,41.9262567 29.7632791,41.8380955 29.6532008,41.728007 C22.3789965,34.4531185 24.5928551,30.3412711 24.5928551,30.3412711 C24.5928551,30.3412711 27.0835936,28.5834428 28.2210436,27.8129732 C28.5435956,27.5943394 28.7629817,27.253548 28.8284735,26.8693994 C28.8939654,26.4852508 28.7998921,26.091009 28.5680059,25.7778336 L22.4006151,16.1718087 C22.1886203,15.8819311 21.8628277,15.6965159 21.5053581,15.6622998 C21.1478886,15.6280836 20.7928442,15.7483307 20.5297192,15.992731 C19.101249,17.324532 16.1529258,20.2607041 15.7018586,21.2026162 C14.6195075,23.528894 14.4702455,26.1816713 15.2848081,28.6147015 C17.3839329,34.9891763 20.9514962,40.7811252 25.6998249,45.5235103 C25.8333913,45.6570892 25.9688445,45.7734643 26.1028103,45.903981 C26.2333148,46.0379536 26.3497541,46.1735007 26.4832453,46.3070796 C31.2252539,51.0558042 37.0166696,54.6236941 43.3905394,56.7230759 C45.8233543,57.537647 48.4758638,57.388345 50.8019219,56.3059109 C51.028816,56.1795018 51.2435894,56.0324668 51.4435221,55.8666679 L53.8697463,57.0157154 C59.1019538,59.5147367 65.3739331,57.4470707 68.0945998,52.3262473 C70.6781295,47.2733564 72.0170491,41.6762378 72,36.0010909 C71.9828699,26.0676729 67.8785136,16.5791444 60.6512438,9.76520076 Z" id="Path"></path>
                </g>
                <line x1="198.5" y1="160.5" x2="276.5" y2="272.5" id="Line-4" stroke="#000000" stroke-width="3" stroke-linecap="square"></line>
                <line x1="271.5" y1="410.5" x2="194.5" y2="531.5" id="Line" stroke="#000000" stroke-width="3" stroke-linecap="square"></line>
                <line x1="202.5" y1="696.5" x2="289.5" y2="809.5" id="Line-5" stroke="#000000" stroke-width="3" stroke-linecap="square"></line>
                <text id="Discovery" font-family="NunitoSans-Bold, Nunito Sans" font-size="36" font-weight="bold" fill="#000000">
                    <tspan x="227" y="110">Discovery </tspan>
                </text>
            </g>
        </g>
    </g>
</svg>