<?xml version="1.0" encoding="UTF-8"?>
<svg width="72px" height="72px" viewBox="0 0 72 72" version="1.1" xmlns="http://www.w3.org/2000/svg" xmlns:xlink="http://www.w3.org/1999/xlink">
    <title>Group</title>
    <g id="!--OnePager-RWD" stroke="none" stroke-width="1" fill="none" fill-rule="evenodd">
        <g id="Artboard-Copy-3" transform="translate(-733.000000, -6530.000000)" fill="#FFFFFF" fill-rule="nonzero">
            <g id="Group" transform="translate(733.000000, 6530.000000)">
                <path d="M60.6512438,9.76520076 C50.4925046,0.218705067 35.7355795,-2.60345854 22.7716494,2.52098069 C9.8077192,7.64541992 0.967797097,19.7950489 0.0804272924,33.7078991 C-0.587304976,43.6471976 2.92547905,53.4138255 9.77087722,60.6503521 C16.5841863,67.8783016 26.0718295,71.98304 36.0043178,72 C37.0707314,72 37.9352305,71.1354196 37.9352305,70.0689057 C37.9352305,69.0023917 37.0707314,68.1378114 36.0043178,68.1378114 C18.6565622,68.1384209 4.43991262,54.3685385 3.88516636,37.0280244 C3.33042011,19.6875104 16.637861,5.03692982 33.9501762,3.92850872 C42.8111583,3.36180168 51.5117266,6.48676455 57.9875961,12.5619729 C64.4634655,18.6371812 68.1374902,27.1211969 68.1379759,36.0011141 C68.1537684,41.0664273 66.959246,46.0622112 64.6538882,50.5724189 C62.890299,53.8412838 58.8663965,55.1427286 55.5228531,53.525656 L54.4989368,53.040758 C55.0794088,52.4571693 55.6180038,51.8995832 56.011242,51.4777062 C56.2556333,51.2145698 56.3758864,50.8594976 56.3416888,50.5019931 C56.3074912,50.1444887 56.1221056,49.8186583 55.8322621,49.6066344 L46.2270537,43.4385478 C45.9139086,43.2066546 45.5197095,43.1125891 45.1356092,43.1781028 C44.751509,43.2436164 44.4107691,43.463036 44.1921807,43.7856238 C43.4217257,44.9231808 41.6641263,47.4140725 41.6641263,47.4140725 C41.6641263,47.4140725 37.5525845,49.6282319 30.2784612,42.3533261 C30.1683829,42.2432375 30.080149,42.1407784 29.9743945,42.0321022 C29.8657344,41.9262567 29.7632791,41.8380955 29.6532008,41.728007 C22.3789965,34.4531185 24.5928551,30.3412711 24.5928551,30.3412711 C24.5928551,30.3412711 27.0835936,28.5834428 28.2210436,27.8129732 C28.5435956,27.5943394 28.7629817,27.253548 28.8284735,26.8693994 C28.8939654,26.4852508 28.7998921,26.091009 28.5680059,25.7778336 L22.4006151,16.1718087 C22.1886203,15.8819311 21.8628277,15.6965159 21.5053581,15.6622998 C21.1478886,15.6280836 20.7928442,15.7483307 20.5297192,15.992731 C19.101249,17.324532 16.1529258,20.2607041 15.7018586,21.2026162 C14.6195075,23.528894 14.4702455,26.1816713 15.2848081,28.6147015 C17.3839329,34.9891763 20.9514962,40.7811252 25.6998249,45.5235103 C25.8333913,45.6570892 25.9688445,45.7734643 26.1028103,45.903981 C26.2333148,46.0379536 26.3497541,46.1735007 26.4832453,46.3070796 C31.2252539,51.0558042 37.0166696,54.6236941 43.3905394,56.7230759 C45.8233543,57.537647 48.4758638,57.388345 50.8019219,56.3059109 C51.028816,56.1795018 51.2435894,56.0324668 51.4435221,55.8666679 L53.8697463,57.0157154 C59.1019538,59.5147367 65.3739331,57.4470707 68.0945998,52.3262473 C70.6781295,47.2733564 72.0170491,41.6762378 72,36.0010909 C71.9828699,26.0676729 67.8785136,16.5791444 60.6512438,9.76520076 Z" id="Path"></path>
            </g>
        </g>
    </g>
</svg>