<?xml version="1.0" encoding="UTF-8"?>
<svg width="58px" height="58px" viewBox="0 0 58 58" version="1.1" xmlns="http://www.w3.org/2000/svg" xmlns:xlink="http://www.w3.org/1999/xlink">
    <title>Path</title>
    <g id="!--OnePager-RWD-v3" stroke="none" stroke-width="1" fill="none" fill-rule="evenodd">
        <g id="Artboard-Copy-3" transform="translate(-592.000000, -5278.000000)" fill="#FFFFFF" fill-rule="nonzero">
            <g id="Card1" transform="translate(161.000000, 5251.000000)">
                <g id="Group" transform="translate(431.000000, 27.000000)">
                    <path d="M48.8579464,7.86641172 C40.6745176,0.176179082 28.7869946,-2.09723049 18.3438286,2.03079 C7.90066269,6.15881049 0.779614328,15.9460116 0.0647886522,27.1535853 C-0.473106786,35.1602425 2.3566359,43.0278039 7.87098443,48.8572281 C13.3594834,54.679743 21.0023071,57.9863378 29.0034782,58 C29.8625337,58 30.5589357,57.3035325 30.5589357,56.4443962 C30.5589357,55.58526 29.8625337,54.8887925 29.0034782,54.8887925 C15.0288973,54.8892835 3.57659628,43.7968782 3.12971735,29.8281308 C2.68283842,15.8593833 13.4027214,4.0575268 27.3487531,3.16463202 C34.4867664,2.70811802 41.4955576,5.22544922 46.7122302,10.119367 C51.9289028,15.0132848 54.8885337,21.8476309 54.888925,29.0008974 C54.9016467,33.0812887 53.9393926,37.1056701 52.0822988,40.738893 C50.6616297,43.3721453 47.4201528,44.4205313 44.7267427,43.1178896 L43.9019213,42.7272773 C44.3695237,42.2571641 44.8033919,41.8079975 45.1201672,41.4681522 C45.317038,41.2561812 45.4139085,40.9701508 45.3863604,40.6821611 C45.3588124,40.3941714 45.2094739,40.131697 44.9759889,39.9608999 L37.2384599,34.9921635 C36.9862042,34.8053606 36.6686548,34.7295857 36.3592408,34.7823605 C36.0498267,34.8351354 35.7753418,35.0118901 35.5992567,35.2717525 C34.9786124,36.1881179 33.5627684,38.1946695 33.5627684,38.1946695 C33.5627684,38.1946695 30.2506931,39.9782979 24.3909826,34.1179571 C24.3023085,34.0292747 24.2312312,33.9467381 24.14604,33.8591934 C24.0585082,33.773929 23.9759748,33.7029103 23.8873007,33.6142278 C18.0275249,27.753901 19.810911,24.4415795 19.810911,24.4415795 C19.810911,24.4415795 21.8173393,23.0255511 22.7336184,22.4048951 C22.993452,22.2287734 23.1701797,21.954247 23.222937,21.644794 C23.2756943,21.3353409 23.1999131,21.0177573 23.0131159,20.7654771 L18.0449399,13.0272904 C17.8741663,12.7937779 17.6117223,12.6444156 17.3237607,12.6168526 C17.0357991,12.5892896 16.7497912,12.6861553 16.5378294,12.8830333 C15.3871172,13.955873 13.0120791,16.3211228 12.6487194,17.0798853 C11.7768254,18.9538313 11.6565867,21.0907908 12.312762,23.0507317 C14.0037237,28.1857254 16.8775941,32.8514619 20.7026367,36.6717166 C20.8102318,36.7793219 20.919347,36.8730685 21.0272639,36.9782069 C21.1323924,37.0861293 21.2261908,37.19532 21.3337253,37.3029252 C25.1536768,41.1282867 29.8189838,44.0024203 34.9534901,45.6935889 C36.9132576,46.3497712 39.0500014,46.2295001 40.9237704,45.3575393 C41.1065462,45.2557098 41.2795581,45.1372649 41.440615,45.0037047 L43.3950734,45.9293263 C47.6099072,47.9424268 52.662335,46.2768069 54.8539832,42.1516992 C56.9351599,38.0813148 58.013734,33.5725249 58,29.0008788 C57.9862008,20.9989587 54.6799138,13.3554219 48.8579464,7.86641172 Z" id="Path"></path>
                </g>
            </g>
        </g>
    </g>
</svg>