<?xml version="1.0" encoding="UTF-8"?>
<svg width="70px" height="75px" viewBox="0 0 70 75" version="1.1" xmlns="http://www.w3.org/2000/svg" xmlns:xlink="http://www.w3.org/1999/xlink">
    <title>Group Copy 5</title>
    <g id="!--OnePager-RWD-v3" stroke="none" stroke-width="1" fill="none" fill-rule="evenodd">
        <g id="Artboard-Copy-3" transform="translate(-983.000000, -5277.000000)">
            <g id="Card4" transform="translate(557.000000, 5251.000000)">
                <g id="Group-Copy-5" transform="translate(428.000000, 28.000000)">
                    <path d="M60.5,22 L5.5,22 C2.475,22 0,19.525 0,16.5 L0,5.5 C0,2.475 2.475,0 5.5,0 L60.5,0 C63.525,0 66,2.475 66,5.5 L66,16.5 C66,19.525 63.525,22 60.5,22 Z" id="Path" stroke="#726E6E" stroke-width="3" stroke-linecap="round" stroke-linejoin="round"></path>
                    <line x1="11" y1="9" x2="11" y2="14" id="Path" stroke="#726E6E" stroke-width="3" stroke-linecap="round" stroke-linejoin="round"></line>
                    <line x1="20" y1="9" x2="20" y2="14" id="Path" stroke="#726E6E" stroke-width="3" stroke-linecap="round" stroke-linejoin="round"></line>
                    <path d="M47,16 C46.1,16 45.5,15.7505055 44.9,15.2515164 C44.3,14.7525273 44,14.2535382 44,13.5050546 C44,13.25556 44,12.7565709 44.3,12.5070764 C44.6,12.2575818 44.6,12.0080873 44.9,11.7585927 C45.2,11.5090982 45.5,11.2596037 45.8,11.2596037 C47,10.7606146 48.2,11.0101091 49.1,11.7585927 C49.4,12.0080873 49.7,12.2575818 49.7,12.5070764 C50,12.7565709 50,13.25556 50,13.5050546 C50,14.2535382 49.7,14.7525273 49.1,15.2515164 C48.5,15.7505055 47.9,16 47,16 Z" id="Path" fill="#726E6E" fill-rule="nonzero"></path>
                    <path d="M54.5,16 C53.75,16 53.25,15.7505055 52.75,15.2515164 C52.25,14.7525273 52,14.2535382 52,13.5050546 C52,13.25556 52,12.7565709 52.25,12.5070764 C52.5,12.2575818 52.5,12.0080873 52.75,11.7585927 C53,11.5090982 53.25,11.2596037 53.5,11.2596037 C54.5,10.7606146 55.5,11.0101091 56.25,11.7585927 C56.5,12.0080873 56.75,12.2575818 56.75,12.5070764 C57,12.7565709 57,13.25556 57,13.5050546 C57,14.2535382 56.75,14.7525273 56.25,15.2515164 C55.75,15.7505055 55.25,16 54.5,16 Z" id="Path" fill="#726E6E" fill-rule="nonzero"></path>
                    <path d="M60.5,44 L5.5,44 C2.475,44 0,41.525 0,38.5 L0,27.5 C0,24.475 2.475,22 5.5,22 L60.5,22 C63.525,22 66,24.475 66,27.5 L66,38.5 C66,41.525 63.525,44 60.5,44 Z" id="Path" stroke="#726E6E" stroke-width="3" stroke-linecap="round" stroke-linejoin="round"></path>
                    <line x1="11" y1="30" x2="11" y2="35" id="Path" stroke="#726E6E" stroke-width="3" stroke-linecap="round" stroke-linejoin="round"></line>
                    <line x1="20" y1="30" x2="20" y2="35" id="Path" stroke="#726E6E" stroke-width="3" stroke-linecap="round" stroke-linejoin="round"></line>
                    <path d="M47,39 C46.1,39 45.5,38.6428221 44.9,37.9284663 C44.3,37.2141104 44,36.4997546 44,35.4282208 C44,35.0710429 44,34.3566871 44.3,33.9995092 C44.6,33.6423313 44.6,33.2851534 44.9,32.9279754 C45.2,32.5707975 45.5,32.2136196 45.8,32.2136196 C47,31.8564417 48.2,31.8564417 49.1,32.9279754 C49.4,33.2851534 49.7,33.6423313 49.7,33.9995092 C50,34.3566871 50,35.0710429 50,35.4282208 C50,36.4997546 49.7,37.2141104 49.1,37.9284663 C48.5,38.6428221 47.9,39 47,39 Z" id="Path" fill="#726E6E" fill-rule="nonzero"></path>
                    <path d="M54.5,39 C53.75,39 53.25,38.6428221 52.75,37.9284663 C52.25,37.2141104 52,36.4997546 52,35.4282208 C52,35.0710429 52,34.3566871 52.25,33.9995092 C52.5,33.6423313 52.5,33.2851534 52.75,32.9279754 C53,32.5707975 53.25,32.2136196 53.5,32.2136196 C54.5,31.8564417 55.5,31.8564417 56.25,32.9279754 C56.5,33.2851534 56.75,33.6423313 56.75,33.9995092 C57,34.3566871 57,35.0710429 57,35.4282208 C57,36.4997546 56.75,37.2141104 56.25,37.9284663 C55.75,38.6428221 55.25,39 54.5,39 Z" id="Path" fill="#726E6E" fill-rule="nonzero"></path>
                    <ellipse id="Oval" stroke="#726E6E" stroke-width="3" stroke-linecap="round" stroke-linejoin="round" cx="33" cy="65.5" rx="6" ry="5.5"></ellipse>
                    <line x1="33.5" y1="44" x2="33.5" y2="60" id="Path" stroke="#726E6E" stroke-width="3" stroke-linecap="round" stroke-linejoin="round"></line>
                    <line x1="14" y1="66" x2="27" y2="66" id="Path" stroke="#726E6E" stroke-width="3" stroke-linecap="round" stroke-linejoin="round"></line>
                    <line x1="39" y1="66" x2="52" y2="66" id="Path" stroke="#726E6E" stroke-width="3" stroke-linecap="round" stroke-linejoin="round"></line>
                </g>
            </g>
        </g>
    </g>
</svg>