<?xml version="1.0" encoding="UTF-8"?>
<svg width="70px" height="48px" viewBox="0 0 70 48" version="1.1" xmlns="http://www.w3.org/2000/svg" xmlns:xlink="http://www.w3.org/1999/xlink">
    <title>Group Copy 6</title>
    <g id="!--OnePager-RWD-v3" stroke="none" stroke-width="1" fill="none" fill-rule="evenodd">
        <g id="Artboard-Copy-3" transform="translate(-864.000000, -5283.000000)" fill="#726E6E" fill-rule="nonzero">
            <g id="Card3" transform="translate(431.000000, 5251.000000)">
                <g id="Group-Copy-6" transform="translate(433.000000, 32.000000)">
                    <path d="M19.1729452,12.624 C20.5853904,11.1950769 20.5853904,8.88 19.1729452,7.45107692 L19.1254999,7.40307692 C17.7130547,5.97415385 15.4246737,5.97415385 14.0122284,7.40307692 L1.05933668,20.5033846 C-0.353112228,21.9323077 -0.353112228,24.2510769 1.05933668,25.68 L14.0122284,38.7803077 C15.4246737,40.2092308 17.7130547,40.2092308 19.1254999,38.7803077 L19.1729452,38.7323077 C20.5853904,37.3033846 20.5853904,34.9883077 19.1729452,33.5593846 L11.3844211,25.68 C9.97197592,24.2510769 9.97197592,21.9323077 11.3844211,20.5033846 L19.1729452,12.624 Z M55.9877716,7.40307692 C54.5789774,5.97415385 52.2869453,5.97415385 50.8745001,7.40307692 L50.8270548,7.45107692 C49.4146096,8.88 49.4146096,11.1950769 50.8270548,12.624 L58.6192299,20.5033846 C60.0316751,21.9323077 60.0316751,24.2510769 58.6192299,25.68 L50.8270548,33.5593846 C49.4146096,34.9883077 49.4146096,37.3033846 50.8270548,38.7323077 L50.8745001,38.7803077 C52.2869453,40.2092308 54.5789774,40.2092308 55.9877716,38.7803077 L68.9406633,25.68 C70.3531122,24.2510769 70.3531122,21.9323077 68.9406633,20.5033846 L55.9877716,7.40307692 Z M28.5415054,45.1888985 C27.9372986,46.4460923 26.8772186,48 25.5096102,48 L25.4372487,48 C22.7780077,48 21.0449809,44.3804308 22.2208335,41.9401846 L40.7631625,2.32899692 C41.367373,1.07549538 43.6069235,0.0927138462 43.6069235,0.0927138462 L43.6069235,0 C47.2249397,0 48.3646133,2.75918769 47.1923749,5.19939692 L28.5415054,45.1888985 Z" id="code-[#1115]"></path>
                </g>
            </g>
        </g>
    </g>
</svg>