<?xml version="1.0" encoding="UTF-8"?>
<svg width="72px" height="65px" viewBox="0 0 72 65" version="1.1" xmlns="http://www.w3.org/2000/svg" xmlns:xlink="http://www.w3.org/1999/xlink">
    <title>Group Copy 3</title>
    <g id="!--OnePager-RWD-v3" stroke="none" stroke-width="1" fill="none" fill-rule="evenodd">
        <g id="Artboard-Copy-3" transform="translate(-729.000000, -5271.000000)" fill="#726E6E" fill-rule="nonzero">
            <g id="Card2" transform="translate(304.000000, 5251.000000)">
                <g id="Group-Copy-3" transform="translate(425.000000, 20.000000)">
                    <path d="M70.744186,34.1666667 L68.6511628,34.1666667 C68.2576744,21.3416667 60.8902326,10.6166667 49.9060465,5.83333333 L63.627907,5.83333333 L63.627907,7.91666667 C63.627907,8.6070226 64.190154,9.16666667 64.8837209,9.16666667 C65.5772878,9.16666667 66.1395349,8.6070226 66.1395349,7.91666667 L66.1395349,1.25 C66.1395349,0.559644063 65.5772878,0 64.8837209,0 C64.190154,0 63.627907,0.559644063 63.627907,1.25 L63.627907,3.33333333 L41.0232558,3.33333333 L41.0232558,1.25 C41.0232558,0.559644063 40.4610088,0 39.7674419,0 L33.0697674,0 C32.3762005,0 31.8139535,0.559644063 31.8139535,1.25 L31.8139535,3.33333333 L9.20930233,3.33333333 L9.20930233,1.25 C9.20930233,0.559644063 8.64705527,0 7.95348837,0 C7.25992148,0 6.69767442,0.559644063 6.69767442,1.25 L6.69767442,7.91666667 C6.69767442,8.6070226 7.25992148,9.16666667 7.95348837,9.16666667 C8.64705527,9.16666667 9.20930233,8.6070226 9.20930233,7.91666667 L9.20930233,5.83333333 L22.8893023,5.83333333 C11.1290049,10.823516 3.45676442,22.2753254 3.34883721,35 L1.25581395,35 C0.562247058,35 0,35.5596441 0,36.25 L0,42.9166667 C0,43.6070226 0.562247058,44.1666667 1.25581395,44.1666667 L7.95348837,44.1666667 C8.64705527,44.1666667 9.20930233,43.6070226 9.20930233,42.9166667 L9.20930233,36.25 C9.20930233,35.5596441 8.64705527,35 7.95348837,35 L5.86046512,35 C6.03377697,20.2335106 17.1005983,7.84630643 31.8139535,5.95 L31.8139535,7.91666667 C31.8139535,8.6070226 32.3762005,9.16666667 33.0697674,9.16666667 L35.2297674,9.16666667 L22.1944186,42.0916667 C22.084295,42.3787827 22.084295,42.6962173 22.1944186,42.9833333 L26.8660465,55.6416667 L26.7906977,63.7416667 C26.7884676,64.0746288 26.919791,64.3947162 27.1555439,64.6309421 C27.3912969,64.867168 27.7119934,65 28.0465116,65 L43.9534884,65 C44.6470553,65 45.2093023,64.4403559 45.2093023,63.75 L45.2093023,55.6833333 L50.9106977,43.0583333 C51.0432868,42.7467314 51.0432868,42.3949353 50.9106977,42.0833333 L37.6074419,9.16666667 L39.7674419,9.16666667 C40.4610088,9.16666667 41.0232558,8.6070226 41.0232558,7.91666667 L41.0232558,5.95 C55.255814,7.89166667 65.6288372,19.5333333 66.1395349,34.1666667 L64.0465116,34.1666667 C63.3529447,34.1666667 62.7906977,34.7263107 62.7906977,35.4166667 L62.7906977,42.0833333 C62.7906977,42.7736893 63.3529447,43.3333333 64.0465116,43.3333333 L70.744186,43.3333333 C71.4377529,43.3333333 72,42.7736893 72,42.0833333 L72,35.4166667 C72,34.7263107 71.4377529,34.1666667 70.744186,34.1666667 Z M6.69767442,41.6666667 L2.51162791,41.6666667 L2.51162791,37.5 L6.69767442,37.5 L6.69767442,41.6666667 Z M29.3023256,62.5 L29.3525581,56.6666667 L42.6976744,56.6666667 L42.6976744,62.5 L29.3023256,62.5 Z M43.1413953,54.1666667 L28.9925581,54.1666667 L24.7060465,42.5666667 L35.1627907,16.1583333 L35.1627907,38.75 C35.1627907,39.4403559 35.7250378,40 36.4186047,40 C37.1121715,40 37.6744186,39.4403559 37.6744186,38.75 L37.6744186,16.0333333 L48.3990698,42.5 L43.1413953,54.1666667 Z M38.5116279,6.66666667 L34.3255814,6.66666667 L34.3255814,2.5 L38.5116279,2.5 L38.5116279,6.66666667 Z M69.4883721,40.8333333 L65.3023256,40.8333333 L65.3023256,36.6666667 L69.4883721,36.6666667 L69.4883721,40.8333333 Z" id="Shape"></path>
                </g>
            </g>
        </g>
    </g>
</svg>