<?xml version="1.0" encoding="UTF-8"?>
<svg width="59px" height="59px" viewBox="0 0 59 59" version="1.1" xmlns="http://www.w3.org/2000/svg" xmlns:xlink="http://www.w3.org/1999/xlink">
    <title>Shape</title>
    <g id="!--OnePager-RWD" stroke="none" stroke-width="1" fill="none" fill-rule="evenodd">
        <g id="Artboard-Copy-3" transform="translate(-446.000000, -10997.000000)" fill="#FFFFFF" fill-rule="nonzero">
            <g id="Footer" transform="translate(-186.000000, 10481.000000)">
                <g id="Group" transform="translate(632.366344, 516.698749)">
                    <path d="M45.9166667,0 L12.0833333,0 C5.41091667,0 0,5.41091667 0,12.0833333 L0,45.9166667 C0,52.5890833 5.41091667,58 12.0833333,58 L45.9166667,58 C52.5915,58 58,52.5890833 58,45.9166667 L58,12.0833333 C58,5.41091667 52.5915,0 45.9166667,0 Z M19.3333333,45.9166667 L12.0833333,45.9166667 L12.0833333,19.3333333 L19.3333333,19.3333333 L19.3333333,45.9166667 Z M15.7083333,16.269 C13.3738333,16.269 11.4791667,14.3598333 11.4791667,12.006 C11.4791667,9.65216667 13.3738333,7.743 15.7083333,7.743 C18.0428333,7.743 19.9375,9.65216667 19.9375,12.006 C19.9375,14.3598333 18.04525,16.269 15.7083333,16.269 Z M48.3333333,45.9166667 L41.0833333,45.9166667 L41.0833333,32.3736667 C41.0833333,24.2343333 31.4166667,24.8505833 31.4166667,32.3736667 L31.4166667,45.9166667 L24.1666667,45.9166667 L24.1666667,19.3333333 L31.4166667,19.3333333 L31.4166667,23.59875 C34.7903333,17.34925 48.3333333,16.8876667 48.3333333,29.5824167 L48.3333333,45.9166667 Z" id="Shape"></path>
                </g>
            </g>
        </g>
    </g>
</svg>