<?xml version="1.0" encoding="UTF-8"?>
<svg width="548px" height="564px" viewBox="0 0 548 564" version="1.1" xmlns="http://www.w3.org/2000/svg" xmlns:xlink="http://www.w3.org/1999/xlink">
    <title>Group</title>
    <g id="!--OnePager-RWD" stroke="none" stroke-width="1" fill="none" fill-rule="evenodd">
        <g id="Artboard-Copy-3" transform="translate(-9.000000, -3230.000000)" fill-rule="nonzero">
            <g id="Group" transform="translate(9.000000, 3230.000000)">
                <path d="M395,133.552227 L391.918571,133.552227 L391.918571,48.9596082 C391.918571,21.9199632 370.01649,0 342.998905,0 L163.920456,0 C150.946154,0 138.503162,5.15781877 129.328797,14.3393781 C120.154432,23.5209374 115,35.973922 115,48.9588174 L115,513.040392 C115,540.080037 136.90208,562 163.919666,562 L342.996535,562 C370.01412,562 391.9162,540.080037 391.9162,513.040392 L391.9162,193.766654 L395,193.766654 L395,133.552227 Z" id="a7e0d23c-0c47-41f1-93b9-87dfccd4c0f5" fill="#3F3D56"></path>
                <path d="M382,47.1341053 L382,517.865104 C381.996947,538.369787 365.39168,554.992577 344.904251,555 L162.120247,555 C141.624515,555 125.006109,538.378094 125,517.865104 L125,47.1341053 C125.006109,26.621861 141.62368,10 162.118666,10 L184.291401,10 C182.080614,15.4413181 182.717683,21.626651 185.991069,26.5021658 C189.264456,31.3776806 194.745689,34.3051954 200.614732,34.3126322 L304.822951,34.3126322 C310.691994,34.3051954 316.173227,31.3776806 319.446614,26.5021658 C322.72,21.626651 323.357069,15.4413181 321.146282,10 L344.897139,10 C365.384261,10 381.992584,26.6226141 382,47.1269871 L382,47.1341053 Z" id="a1ad11fc-8226-4675-bbe0-e36020d9de96" fill="#FFFFFF"></path>
                <path d="M336.000183,317.999199 L173.999817,317.999199 C172.343784,317.997469 171.001738,316.660799 171,315.011401 L171,274.987798 C171.002171,273.338579 172.343964,272.002162 173.999817,272 L336.000183,272 C337.656036,272.002162 338.997829,273.338579 339,274.987798 L339,315.012202 C338.997829,316.661421 337.656036,317.997838 336.000183,318 L336.000183,317.999199 Z M173.999817,273.194789 C173.005951,273.195655 172.199612,273.997899 172.199612,274.987782 L172.199612,315.012186 C172.199612,316.00207 173.005951,316.804313 173.999817,316.805179 L336.000183,316.805179 C336.994049,316.804313 337.800388,316.00207 337.800388,315.012186 L337.800388,274.987782 C337.800388,273.997899 336.994049,273.195655 336.000183,273.194789 L173.999817,273.194789 Z" id="a71e44ec-7616-4081-86af-b6db32cd39f3" fill="#E6E6E6"></path>
                <path d="M224.114737,286 C222.9468,286 222,286.895096 222,287.999253 C222,289.10341 222.9468,289.998505 224.114737,289.998505 L323.803835,289.998505 C324.971138,290.040794 325.953687,289.180466 325.998419,288.076908 C326.043151,286.97335 325.133127,286.044458 323.965823,286.002168 C323.93487,286.001063 323.903885,286.000588 323.872868,286.000743 L224.114722,286.000743 L224.114737,286 Z" id="a3f57aef-fb20-4553-8f82-b751eb5ec42c" fill="#E6E6E6"></path>
                <path d="M224.114738,299 C222.9468,299 222,299.895101 222,300.999264 C222,302.103427 222.9468,302.998528 224.114738,302.998528 L323.803861,302.998528 C324.558975,303.025884 325.272166,302.670312 325.674782,302.065751 C326.077399,301.46119 326.108273,300.699488 325.755776,300.067571 C325.403279,299.435654 324.720963,299.029525 323.96585,299.002168 C323.934897,299.001073 323.903912,299.0006 323.872895,299.00075 L224.114722,299.00075 L224.114738,299 Z" id="a617e1da-1a45-4bf0-a146-8b20186fa5b6" fill="#E6E6E6"></path>
                <path d="M336.000183,384 L173.999817,384 C172.343784,383.998269 171.001738,382.661577 171,381.01215 L171,340.98785 C171.002171,339.338603 172.343964,338.002162 173.999817,338 L336.000183,338 C337.656036,338.002162 338.997829,339.338603 339,340.98785 L339,381.012951 C338.997386,382.661885 337.655723,383.997839 336.000183,384 L336.000183,384 Z M173.999817,339.19481 C173.005951,339.195676 172.199612,339.997933 172.199612,340.987834 L172.199612,381.012935 C172.199612,382.002836 173.005951,382.805093 173.999817,382.805959 L336.000183,382.805959 C336.994049,382.805093 337.800388,382.002836 337.800388,381.012935 L337.800388,340.987834 C337.800388,339.997933 336.994049,339.195676 336.000183,339.19481 L173.999817,339.19481 Z" id="f83fafa3-5270-49ac-8952-eedc3d6c92ed" fill="#E6E6E6"></path>
                <path d="M224.116631,354 C222.947648,354 222,354.895431 222,356 C222,357.104569 222.947648,358 224.116631,358 L323.894974,358 C325.046011,357.993831 325.980919,357.119801 326,356.032316 C326.018505,354.944831 325.114296,354.042426 323.964086,354.000751 L224.116631,354.000751 L224.116631,354 Z" id="b1e095e5-1d51-47f4-b1e9-85a21efab4ec" fill="#E6E6E6"></path>
                <path d="M224.116631,366 C222.947648,366 222,366.895431 222,368 C222,369.104569 222.947648,370 224.116631,370 L323.894974,370 C325.046011,369.993831 325.980919,369.119801 326,368.032316 C326.018505,366.944831 325.114296,366.042426 323.964086,366.000751 L224.116631,366.000751 L224.116631,366 Z" id="e7ccabbb-2f45-40c9-adc9-a92013dc0f4d" fill="#E6E6E6"></path>
                <path d="M336.000183,451.999199 L173.999817,451.999199 C172.343784,451.997469 171.001738,450.660799 171,449.011401 L171,408.987798 C171.002171,407.338579 172.343964,406.002162 173.999817,406 L336.000183,406 C337.656036,406.002162 338.997829,407.338579 339,408.987798 L339,449.012202 C338.997829,450.661421 337.656036,451.997838 336.000183,452 L336.000183,451.999199 Z M173.999817,407.194789 C173.005951,407.195655 172.199612,407.997899 172.199612,408.987782 L172.199612,449.012186 C172.199612,450.00207 173.005951,450.804313 173.999817,450.805179 L336.000183,450.805179 C336.994049,450.804313 337.800388,450.00207 337.800388,449.012186 L337.800388,408.987782 C337.800388,407.997899 336.994049,407.195655 336.000183,407.194789 L173.999817,407.194789 Z" id="ec532991-8ec8-4eba-a86f-87c70c278f41" fill="#E6E6E6"></path>
                <path d="M224.114737,421 C222.9468,421 222,421.895096 222,422.999253 C222,424.10341 222.9468,424.998505 224.114737,424.998505 L323.803834,424.998505 C324.971138,425.040794 325.953687,424.180466 325.998419,423.076908 C326.043151,421.97335 325.133127,421.044458 323.965823,421.002168 C323.934869,421.001073 323.903885,421.0006 323.872868,421.00075 L224.114722,421.00075 L224.114737,421 Z" id="a788f10e-f95b-4590-bad9-be702445c232" fill="#E6E6E6"></path>
                <path d="M224.114737,434 C222.9468,434 222,434.895096 222,435.999253 C222,437.10341 222.9468,437.998505 224.114737,437.998505 L323.803834,437.998505 C324.971138,438.040794 325.953687,437.180466 325.998419,436.076908 C326.043151,434.97335 325.133127,434.044458 323.965823,434.002168 C323.934869,434.001068 323.903885,434.000595 323.872868,434.00075 L224.114722,434.00075 L224.114737,434 Z" id="f15a5014-9b42-4c0b-a546-80766b911601" fill="#E6E6E6"></path>
                <path d="M546.567603,564 L1.43085692,564 C0.641200785,564 0,563.552164 0,563.000024 C0,562.447884 0.641200785,562 1.43085692,562 L546.569143,562 C547.358799,562 548,562.447836 548,562.999976 C548,563.552116 547.357259,564 546.567603,564 Z" id="b97f850c-7352-4ff9-8496-0f681ff3b244" fill="#E6E6E6"></path>
                <g id="bf60e786-3805-43a5-8cdd-bbea060079bf" transform="translate(181.000000, 282.000000)">
                    <circle id="a323e3dd-8f2c-40f7-a0c1-7a235f78e8b7" fill="#BE1717" cx="12.5" cy="12.5" r="12.5"></circle>
                    <path d="M6.51585763,10.1651289 C6.37198173,10.1651289 6.25547354,11.0979764 6.25547354,12.2482016 C6.25547354,13.3984267 6.37198173,14.3320562 6.51585763,14.3320562 L18.8070812,14.3320562 C18.9509571,14.3508226 19.0698111,13.4336138 19.0721569,12.2833886 C19.1519953,11.5672241 19.0641913,10.842305 18.8156825,10.1659108 L6.51585763,10.1659108 L6.51585763,10.1651289 Z" id="b21d221e-9b86-4bff-9dca-a61a27263db1" fill="#E6E6E6"></path>
                </g>
                <g id="b51141dd-8175-4f5a-b697-41b89601b37f" transform="translate(181.000000, 349.000000)">
                    <circle id="e363222e-d569-47a6-8bf5-edbaac636a07" fill="#BF1717" cx="12.5" cy="12.5" r="12.5"></circle>
                    <path d="M6.51585763,10.1651289 C6.37198173,10.1651289 6.25547354,11.0979764 6.25547354,12.2482016 C6.25547354,13.3984267 6.37198173,14.3320562 6.51585763,14.3320562 L18.8070812,14.3320562 C18.9509571,14.3508226 19.0698111,13.4336138 19.0721569,12.2833886 C19.1519953,11.5672241 19.0641913,10.842305 18.8156825,10.1659108 L6.51585763,10.1659108 L6.51585763,10.1651289 Z" id="bf4b9d9b-b2cd-48cd-bc0b-2e6b007ef33d" fill="#E6E6E6"></path>
                </g>
                <g id="b35aa588-fd9e-4429-8570-fee6b5da93cc" transform="translate(181.000000, 416.000000)">
                    <circle id="b896a996-d737-41ee-9642-d5eaf8a9fd6b" fill="#BE1717" cx="12.5" cy="12.5" r="12.5"></circle>
                    <path d="M6.51585763,10.1651289 C6.37198173,10.1651289 6.25547354,11.0979764 6.25547354,12.2482016 C6.25547354,13.3984267 6.37198173,14.3320562 6.51585763,14.3320562 L18.8070812,14.3320562 C18.9509571,14.3508226 19.0698111,13.4336138 19.0721569,12.2833886 C19.1519942,11.5672241 19.0641901,10.8423053 18.8156825,10.1659108 L6.51585763,10.1659108 L6.51585763,10.1651289 Z" id="f0c90521-3626-484d-9767-39f7327e6a31" fill="#E6E6E6"></path>
                </g>
                <path d="M294.142753,203 C292.802317,203.004404 291.573449,202.258137 290.964907,201.070136 C285.833968,191.092209 276.877178,183.591903 266.11814,180.263758 C263.937463,179.60565 261.712018,179.104426 259.459033,178.763967 L259,178.694728 L282.696313,105 L283.096952,105.013849 C329.133878,117.456897 355.473551,154.157118 362.449741,165.108837 C362.987496,165.955436 363.139625,166.988973 362.868435,167.953381 C362.597246,168.917789 361.928112,169.722836 361.026816,170.169067 L295.742023,202.623788 C295.245606,202.871207 294.698003,203 294.142753,203 L294.142753,203 Z" id="Path" fill="#E6E6E6"></path>
                <circle id="Oval" fill="#3F3D56" cx="254.5" cy="211.5" r="6.5"></circle>
                <path d="M210.758976,202.587122 L145.899643,168.548531 C145.030008,168.092137 144.388734,167.298394 144.127757,166.355362 C143.866779,165.412331 144.009322,164.403924 144.521611,163.569062 C153.18538,149.754571 164.156776,137.513194 176.9628,127.372683 C199.361253,109.712936 224.839018,100.853074 252.684498,101.001843 C263.127936,101.047823 273.520822,102.447516 283.600617,105.165563 L284,105.273203 L260.315106,178.918403 L259.981807,178.868433 C257.848459,178.548238 255.69738,178.358488 253.540682,178.300251 C229.441337,177.623658 218.997879,193.948705 215.625447,200.997902 C215.214993,201.861963 214.464995,202.519767 213.551833,202.816613 C213.187231,202.937685 212.80542,203 212.421041,203 C211.841471,203 211.270884,202.857466 210.758976,202.587122 Z" id="Path" fill="#C91818"></path>
                <path d="M283,105 L265.866473,180 C263.61798,179.331427 261.323209,178.822494 259,178.477157 L282.992073,105 L283,105 Z" id="Path" fill="#3F3D56"></path>
            </g>
        </g>
    </g>
</svg>