<?xml version="1.0" encoding="UTF-8"?>
<svg width="274px" height="282px" viewBox="0 0 274 282" version="1.1" xmlns="http://www.w3.org/2000/svg" xmlns:xlink="http://www.w3.org/1999/xlink">
    <title>phone</title>
    <g id="phone" stroke="none" stroke-width="1" fill="none" fill-rule="evenodd">
        <g id="Artboard-Copy" transform="translate(-138.000000, -183.000000)" fill-rule="nonzero">
            <g id="phone" transform="translate(138.000000, 183.000000)">
                <path d="M198,66.7761136 L196.459285,66.7761136 L196.459285,24.4798041 C196.459285,10.9599816 185.508245,0 171.999453,0 L82.4602278,0 C75.9730768,0 69.751581,2.57890938 65.1643985,7.16968904 C60.577216,11.7604687 58,17.986961 58,24.4794087 L58,256.520196 C58,270.040018 68.9510402,281 82.4598328,281 L171.998267,281 C185.50706,281 196.4581,270.040018 196.4581,256.520196 L196.4581,96.883327 L198,96.883327 L198,66.7761136 Z" id="a7e0d23c-0c47-41f1-93b9-87dfccd4c0f5" fill="#3F3D56"></path>
                <path d="M191,23.6011206 L191,259.398483 C190.998468,269.669636 182.663528,277.996282 172.379955,278 L80.6323417,278 C70.344601,278 62.0030665,269.673797 62,259.398483 L62,23.6011206 C62.0030665,13.3261799 70.3441817,5 80.6315484,5 L91.7610535,5 C90.6513588,7.72565109 90.9711325,10.8239921 92.6141942,13.2662225 C94.2572559,15.7084529 97.0085364,17.1748961 99.9544763,17.1786213 L152.261326,17.1786213 C155.207265,17.1748961 157.958546,15.7084529 159.601608,13.2662225 C161.244669,10.8239921 161.564443,7.72565109 160.454748,5 L172.376385,5 C182.659804,5 190.996277,13.3265571 191,23.597555 L191,23.6011206 Z" id="a1ad11fc-8226-4675-bbe0-e36020d9de96" fill="#FFFFFF"></path>
                <path d="M168.500091,158.9996 L87.4999085,158.9996 C86.6718921,158.998734 86.0008689,158.3304 86,157.505701 L86,137.493899 C86.0010855,136.66929 86.671982,136.001081 87.4999085,136 L168.500091,136 C169.328018,136.001081 169.998914,136.66929 170,137.493899 L170,157.506101 C169.998914,158.33071 169.328018,158.998919 168.500091,159 L168.500091,158.9996 Z M87.4999085,136.597395 C87.0029756,136.597828 86.5998058,136.998949 86.5998058,137.493891 L86.5998058,157.506093 C86.5998058,158.001035 87.0029756,158.402157 87.4999085,158.40259 L168.500091,158.40259 C168.997024,158.402157 169.400194,158.001035 169.400194,157.506093 L169.400194,137.493891 C169.400194,136.998949 168.997024,136.597828 168.500091,136.597395 L87.4999085,136.597395 Z" id="a71e44ec-7616-4081-86af-b6db32cd39f3" fill="#E6E6E6"></path>
                <path d="M112.057369,143 C111.4734,143 111,143.447548 111,143.999626 C111,144.551705 111.4734,144.999253 112.057369,144.999253 L161.901917,144.999253 C162.485569,145.020397 162.976844,144.590233 162.99921,144.038454 C163.021575,143.486675 162.566563,143.022229 161.982911,143.001084 C161.967435,143.000531 161.951942,143.000294 161.936434,143.000371 L112.057361,143.000371 L112.057369,143 Z" id="a3f57aef-fb20-4553-8f82-b751eb5ec42c" fill="#E6E6E6"></path>
                <path d="M112.057369,150 C111.4734,150 111,150.447551 111,150.999632 C111,151.551714 111.4734,151.999264 112.057369,151.999264 L161.901931,151.999264 C162.279487,152.012942 162.636083,151.835156 162.837391,151.532876 C163.038699,151.230595 163.054137,150.849744 162.877888,150.533786 C162.70164,150.217827 162.360482,150.014762 161.982925,150.001084 C161.967448,150.000536 161.951956,150.0003 161.936448,150.000375 L112.057361,150.000375 L112.057369,150 Z" id="a617e1da-1a45-4bf0-a146-8b20186fa5b6" fill="#E6E6E6"></path>
                <path d="M168.500091,192 L87.4999085,192 C86.6718921,191.999135 86.0008689,191.330788 86,190.506075 L86,170.493925 C86.0010855,169.669301 86.671982,169.001081 87.4999085,169 L168.500091,169 C169.328018,169.001081 169.998914,169.669301 170,170.493925 L170,190.506475 C169.998693,191.330943 169.327861,191.998919 168.500091,192 L168.500091,192 Z M87.4999085,169.597405 C87.0029756,169.597838 86.5998058,169.998967 86.5998058,170.493917 L86.5998058,190.506468 C86.5998058,191.001418 87.0029756,191.402547 87.4999085,191.40298 L168.500091,191.40298 C168.997024,191.402547 169.400194,191.001418 169.400194,190.506468 L169.400194,170.493917 C169.400194,169.998967 168.997024,169.597838 168.500091,169.597405 L87.4999085,169.597405 Z" id="f83fafa3-5270-49ac-8952-eedc3d6c92ed" fill="#E6E6E6"></path>
                <path d="M112.058315,177 C111.473824,177 111,177.447715 111,178 C111,178.552285 111.473824,179 112.058315,179 L161.947487,179 C162.523006,178.996915 162.99046,178.559901 163,178.016158 C163.009253,177.472416 162.557148,177.021213 161.982043,177.000375 L112.058315,177.000375 L112.058315,177 Z" id="b1e095e5-1d51-47f4-b1e9-85a21efab4ec" fill="#E6E6E6"></path>
                <path d="M112.058315,183 C111.473824,183 111,183.447715 111,184 C111,184.552285 111.473824,185 112.058315,185 L161.947487,185 C162.523006,184.996915 162.99046,184.559901 163,184.016158 C163.009253,183.472416 162.557148,183.021213 161.982043,183.000375 L112.058315,183.000375 L112.058315,183 Z" id="e7ccabbb-2f45-40c9-adc9-a92013dc0f4d" fill="#E6E6E6"></path>
                <path d="M168.500091,225.9996 L87.4999085,225.9996 C86.6718921,225.998734 86.0008689,225.3304 86,224.505701 L86,204.493899 C86.0010855,203.66929 86.671982,203.001081 87.4999085,203 L168.500091,203 C169.328018,203.001081 169.998914,203.66929 170,204.493899 L170,224.506101 C169.998914,225.33071 169.328018,225.998919 168.500091,226 L168.500091,225.9996 Z M87.4999085,203.597395 C87.0029756,203.597828 86.5998058,203.998949 86.5998058,204.493891 L86.5998058,224.506093 C86.5998058,225.001035 87.0029756,225.402157 87.4999085,225.40259 L168.500091,225.40259 C168.997024,225.402157 169.400194,225.001035 169.400194,224.506093 L169.400194,204.493891 C169.400194,203.998949 168.997024,203.597828 168.500091,203.597395 L87.4999085,203.597395 Z" id="ec532991-8ec8-4eba-a86f-87c70c278f41" fill="#E6E6E6"></path>
                <path d="M112.057369,211 C111.4734,211 111,211.447548 111,211.999626 C111,212.551705 111.4734,212.999253 112.057369,212.999253 L161.901917,212.999253 C162.485569,213.020397 162.976844,212.590233 162.99921,212.038454 C163.021575,211.486675 162.566563,211.022229 161.982911,211.001084 C161.967435,211.000536 161.951942,211.0003 161.936434,211.000375 L112.057361,211.000375 L112.057369,211 Z" id="a788f10e-f95b-4590-bad9-be702445c232" fill="#E6E6E6"></path>
                <path d="M112.057369,217 C111.4734,217 111,217.447548 111,217.999626 C111,218.551705 111.4734,218.999253 112.057369,218.999253 L161.901917,218.999253 C162.485569,219.020397 162.976844,218.590233 162.99921,218.038454 C163.021575,217.486675 162.566563,217.022229 161.982911,217.001084 C161.967435,217.000534 161.951942,217.000298 161.936434,217.000375 L112.057361,217.000375 L112.057369,217 Z" id="f15a5014-9b42-4c0b-a546-80766b911601" fill="#E6E6E6"></path>
                <path d="M273.283802,282 L0.715428462,282 C0.320600392,282 0,281.776082 0,281.500012 C0,281.223942 0.320600392,281 0.715428462,281 L273.284572,281 C273.6794,281 274,281.223918 274,281.499988 C274,281.776058 273.67863,282 273.283802,282 Z" id="b97f850c-7352-4ff9-8496-0f681ff3b244" fill="#E6E6E6"></path>
                <circle id="Oval" fill="#3F3D56" cx="127.5" cy="105.5" r="3.5"></circle>
                <g id="speedometer" transform="translate(73.000000, 51.000000)">
                    <g id="speedometer__background" transform="translate(0.000000, 0.000000)" fill="#FFFFFF">
                        <path d="M54.342249,0.00092135034 L55,0.009 L55.0006556,38.6573461 C54.9238998,38.654606 54.8471276,38.6521991 54.7703412,38.6501256 C49.881409,38.512868 46.1164799,39.774999 43.2556498,41.5589721 L18.2915852,11.8072802 C29.0467322,3.89547008 41.1641892,-0.0694845554 54.342249,0.00092135034 Z" id="Combined-Shape"></path>
                        <path d="M18.2915852,11.8072802 L43.2556498,41.5589721 C43.2810545,41.5431301 43.3065304,41.5273292 43.3320778,41.5115701 C39.0926165,44.1268714 36.8208289,47.8917673 35.8127234,49.9989509 C35.6074966,50.4309817 35.2324975,50.7598835 34.7759167,50.9083066 C34.5936155,50.9688425 34.4027101,51 34.2105207,51 C33.9207355,51 33.6354419,50.928733 33.3794878,50.793561 L0.949821534,33.7742656 C0.515003947,33.5460684 0.194366972,33.149197 0.0638783502,32.6776812 C-0.0666102717,32.2061653 0.00466075804,31.701962 0.260805367,31.284531 C4.59268988,24.3772854 10.0783881,18.2565971 16.4814001,13.1863417 C17.0508522,12.7373651 17.6242852,12.2997644 18.201652,11.8735532 L18.2915852,11.8072802 Z" id="Combined-Shape"></path>
                        <path d="M54.342249,0.000921350342 C59.563968,0.0239115699 64.7604109,0.723757937 69.8003083,2.08278135 L69.82,2.087 L69.8481565,2 L70.0484761,2.00692466 C78.2121343,4.21343146 85.1370168,7.94549085 90.8305684,12.0877435 L66.0473974,41.6207561 C64.6464659,40.7916138 63.1417678,40.1214625 61.5590698,39.631879 C60.4687316,39.302825 59.3560091,39.0522131 58.2295166,38.8819836 L58.184,38.874 L58.1575532,38.9592015 L57.9909034,38.9342164 C56.9998543,38.7854697 56.0011524,38.6930248 54.9996544,38.6573103 L54.999249,0.00892135034 L54.342249,0.000921350342 Z" id="Combined-Shape"></path>
                        <path d="M90.8305684,12.0877435 L91.0870562,12.2752326 C101.294467,19.7720253 107.492489,28.5498685 109.72487,32.0544183 C109.993748,32.4777181 110.069812,32.9944863 109.934218,33.4766903 C109.798623,33.9588943 109.464056,34.3614178 109.013408,34.5845333 L76.3710117,50.811894 C76.1228028,50.9356037 75.8490015,51 75.5713765,51 C74.9011583,51.0022021 74.2867246,50.6290685 73.9824533,50.0350681 C72.1641872,46.4991599 69.3850184,43.5855321 66.0051663,41.5958283 L66.0473974,41.6207561 L90.8305684,12.0877435 L90.8305684,12.0877435 Z" id="Combined-Shape"></path>
                    </g>
                    <path d="M90.8305684,12.0877435 L91.0870562,12.2752326 C101.294467,19.7720253 107.492489,28.5498685 109.72487,32.0544183 C109.993748,32.4777181 110.069812,32.9944863 109.934218,33.4766903 C109.798623,33.9588943 109.464056,34.3614178 109.013408,34.5845333 L76.3710117,50.811894 C76.1228028,50.9356037 75.8490015,51 75.5713765,51 C74.9011583,51.0022021 74.2867246,50.6290685 73.9824533,50.0350681 C72.1641872,46.4991599 69.3850184,43.5855321 66.0051663,41.5958283 L66.0473974,41.6207561 L90.8305684,12.0877435 L90.8305684,12.0877435 Z" id="bar-4" fill="#C81818"></path>
                    <path d="M54.342249,0.000921350341 C59.563968,0.0239115699 64.7604109,0.723757937 69.8003083,2.08278135 L69.82,2.087 L69.8481565,2 L70.0484761,2.00692466 C78.2121343,4.21343146 85.1370168,7.94549085 90.8305684,12.0877435 L66.0473974,41.6207561 C64.6464659,40.7916138 63.1417678,40.1214625 61.5590698,39.631879 C60.4687316,39.302825 59.3560091,39.0522131 58.2295166,38.8819836 L58.184,38.874 L58.1575532,38.9592015 L57.9909034,38.9342164 C56.9998543,38.7854697 56.0011524,38.6930248 54.9996544,38.6573103 L54.999249,0.00892135034 L54.342249,0.000921350341 Z" id="bar-3" fill="#E94646"></path>
                    <path d="M54.342249,0.00092135034 L55,0.009 L55.0006556,38.6573461 C54.9238998,38.654606 54.8471276,38.6521991 54.7703412,38.6501256 C49.881409,38.512868 46.1164799,39.774999 43.2556498,41.5589721 L18.2915852,11.8072802 C29.0467322,3.89547008 41.1641892,-0.0694845554 54.342249,0.00092135034 Z" id="bar-2" fill="#FAD2D2"></path>
                    <path d="M18.2915852,11.8072802 L43.2556498,41.5589721 C43.2810545,41.5431301 43.3065304,41.5273292 43.3320778,41.5115701 C39.0926165,44.1268714 36.8208289,47.8917673 35.8127234,49.9989509 C35.6074966,50.4309817 35.2324975,50.7598835 34.7759167,50.9083066 C34.5936155,50.9688425 34.4027101,51 34.2105207,51 C33.9207355,51 33.6354419,50.928733 33.3794878,50.793561 L0.949821534,33.7742656 C0.515003947,33.5460684 0.194366972,33.149197 0.0638783502,32.6776812 C-0.0666102717,32.2061653 0.00466075804,31.701962 0.260805367,31.284531 C4.59268988,24.3772854 10.0783881,18.2565971 16.4814001,13.1863417 C17.0508522,12.7373651 17.6242852,12.2997644 18.201652,11.8735532 L18.2915852,11.8072802 Z" id="bar-1" fill="#FEF5F5"></path>
                </g>
                <path d="M130.112338,89.8224597 C129.637227,89.8224597 128.933333,89.7791401 128.000656,89.6925009 C127.067978,89.6058617 126.382338,89.6058617 125.943736,89.6925009 L127.964652,52.0234739 L130.112338,89.8224597 Z" id="Path" fill="#3F3D56"></path>
                <g id="check-1" transform="translate(91.000000, 141.000000)">
                    <path d="M12,6 C12,9.3138 9.3138,12 6,12 C2.68632,12 0,9.3138 0,6 C0,2.68632 2.68632,0 6,0 C9.3138,0 12,2.68632 12,6 Z" id="Path" fill="#007A23"></path>
                    <path d="M12,6 C12,9.3138 9.3138,12 6,12 C2.68632,12 0,9.3138 0,6 C0,2.68632 2.68632,0 6,0 C9.3138,0 12,2.68632 12,6 Z" id="Path" stroke="#E6E6E6"></path>
                    <polygon id="Path" fill="#27AE60" points="8.66666667 3.5 4.90196078 7.02941176 3.33333333 5.55882353 2 6.79411765 3.56862745 8.26470588 4.82352941 9.44117647 4.90196078 9.5 10 4.73529412"></polygon>
                    <polygon id="Path" fill="#ECF0F1" points="8.66666667 3.5 4.90196078 7.02941176 3.33333333 5.55882353 2 6.79411765 3.56862745 8.26470588 4.82352941 9.44117647 4.90196078 9.5 10 4.73529412"></polygon>
                </g>
                <g id="check-2" transform="translate(91.000000, 175.000000)">
                    <path d="M12,6 C12,9.3138 9.3138,12 6,12 C2.68632,12 0,9.3138 0,6 C0,2.68632 2.68632,0 6,0 C9.3138,0 12,2.68632 12,6 Z" id="Path" fill="#007A23"></path>
                    <path d="M12,6 C12,9.3138 9.3138,12 6,12 C2.68632,12 0,9.3138 0,6 C0,2.68632 2.68632,0 6,0 C9.3138,0 12,2.68632 12,6 Z" id="Path" stroke="#E6E6E6"></path>
                    <polygon id="Path" fill="#27AE60" points="8.66666667 3.5 4.90196078 7.02941176 3.33333333 5.55882353 2 6.79411765 3.56862745 8.26470588 4.82352941 9.44117647 4.90196078 9.5 10 4.73529412"></polygon>
                    <polygon id="Path" fill="#ECF0F1" points="8.66666667 3.5 4.90196078 7.02941176 3.33333333 5.55882353 2 6.79411765 3.56862745 8.26470588 4.82352941 9.44117647 4.90196078 9.5 10 4.73529412"></polygon>
                </g>
                <g id="check-3" transform="translate(91.000000, 208.000000)">
                    <path d="M12,6 C12,9.3138 9.3138,12 6,12 C2.68632,12 0,9.3138 0,6 C0,2.68632 2.68632,0 6,0 C9.3138,0 12,2.68632 12,6 Z" id="Path" fill="#007A23"></path>
                    <path d="M12,6 C12,9.3138 9.3138,12 6,12 C2.68632,12 0,9.3138 0,6 C0,2.68632 2.68632,0 6,0 C9.3138,0 12,2.68632 12,6 Z" id="Path" stroke="#E6E6E6"></path>
                    <polygon id="Path" fill="#27AE60" points="8.66666667 3.5 4.90196078 7.02941176 3.33333333 5.55882353 2 6.79411765 3.56862745 8.26470588 4.82352941 9.44117647 4.90196078 9.5 10 4.73529412"></polygon>
                    <polygon id="Path" fill="#ECF0F1" points="8.66666667 3.5 4.90196078 7.02941176 3.33333333 5.55882353 2 6.79411765 3.56862745 8.26470588 4.82352941 9.44117647 4.90196078 9.5 10 4.73529412"></polygon>
                </g>
            </g>
        </g>
    </g>
</svg>