<?xml version="1.0" encoding="UTF-8"?>
<svg width="59px" height="59px" viewBox="0 0 59 59" version="1.1" xmlns="http://www.w3.org/2000/svg" xmlns:xlink="http://www.w3.org/1999/xlink">
    <title>Twitter</title>
    <g id="!--OnePager-RWD" stroke="none" stroke-width="1" fill="none" fill-rule="evenodd">
        <g id="Artboard-Copy-3" transform="translate(-601.000000, -10997.000000)" fill="#FFFFFF" fill-rule="nonzero">
            <g id="Footer" transform="translate(-186.000000, 10481.000000)">
                <g id="Twitter" transform="translate(787.366344, 516.698749)">
                    <path d="M45.9166667,0 L12.0833333,0 C5.41091667,0 0,5.41091667 0,12.0833333 L0,45.9166667 C0,52.5890833 5.41091667,58 12.0833333,58 L45.9166667,58 C52.5915,58 58,52.5890833 58,45.9166667 L58,12.0833333 C58,5.41091667 52.5915,0 45.9166667,0 Z M45.58075,22.32275 C46.0858333,33.4805 37.76525,45.9215 23.03325,45.9215 C18.55275,45.9215 14.384,44.60925 10.8725833,42.3569167 C15.0824167,42.8523333 19.2825833,41.6850833 22.6175833,39.0726667 C19.1448333,39.0074167 16.2158333,36.714 15.2080833,33.5626667 C16.4526667,33.7995 17.6755,33.7294167 18.7895833,33.4273333 C14.9736667,32.66125 12.3419167,29.22475 12.4265,25.549 C13.4946667,26.1435 14.7199167,26.5011667 16.0176667,26.54225 C12.4869167,24.1811667 11.4864167,19.517 13.5623333,15.95 C17.4749167,20.7495 23.3208333,23.9080833 29.9135,24.2391667 C28.7559167,19.27775 32.5235,14.5 37.6444167,14.5 C39.9233333,14.5 41.9871667,15.4618333 43.4323333,17.0060833 C45.24,16.6508333 46.9389167,15.9910833 48.4735,15.0824167 C47.879,16.936 46.6223333,18.4899167 44.98625,19.4710833 C46.5909167,19.27775 48.1206667,18.8524167 49.5416667,18.2216667 C48.48075,19.807 47.1346667,21.2038333 45.58075,22.32275 Z" id="Shape"></path>
                </g>
            </g>
        </g>
    </g>
</svg>