<?xml version="1.0" encoding="UTF-8"?>
<svg width="391px" height="644px" viewBox="0 0 391 644" version="1.1" xmlns="http://www.w3.org/2000/svg" xmlns:xlink="http://www.w3.org/1999/xlink">
    <title>Group</title>
    <g id="!--OnePager-RWD" stroke="none" stroke-width="1" fill="none" fill-rule="evenodd">
        <g id="Artboard" transform="translate(-1139.000000, -774.000000)" fill-rule="nonzero">
            <g id="Group" transform="translate(1139.000000, 774.000000)">
                <path d="M244.743658,147 L17,398.133127 C29.4281328,425.151249 48.1846105,448.774205 71.6798603,467 L317,193.115342 C296.870413,172.279359 272.116166,156.480738 244.743658,147 L244.743658,147 Z" id="Path" fill="#F2F2F2"></path>
                <path d="M244,147 L244,0 L124,0 L124,146.545464 C162.943205,133.381558 205.157615,133.541458 244,147 Z" id="Path" fill="#C81818"></path>
                <path d="M124,493.454924 L124,644 L244,644 L244,493 C205.157615,506.470008 162.943205,506.630044 124,493.454924 L124,493.454924 Z" id="Path" fill="#C81818"></path>
                <path d="M185,505 C82.9908711,505 0,422.009271 0,319.999684 C0,217.990729 82.9908711,135 185,135 C287.009129,135 370,217.990729 370,319.999684 C370,422.009245 287.009129,505 185,505 Z M185,136.289196 C83.7015934,136.289196 1.28919861,218.701463 1.28919861,319.999684 C1.28919861,421.297905 83.7015934,503.710804 185,503.710804 C286.298407,503.710804 368.710801,421.297918 368.710801,319.999684 C368.710801,218.70145 286.298407,136.289196 185,136.289196 Z" id="Shape" fill="#000000"></path>
                <path d="M54,320 C54,391.797017 112.202983,450 184,450 L184,190 C112.202983,190 54,248.202983 54,320 L54,320 Z" id="Path" fill="#B8B8EE"></path>
                <path d="M185,190 L185,450 C256.797018,450 315,391.797016 315,320 C315,248.202984 256.797018,190 185,190 L185,190 Z" id="Path" fill="#C81818"></path>
                <circle id="Oval" fill="#2F2E41" cx="185" cy="327" r="18"></circle>
                <polygon id="Path" fill="#2F2E41" points="185 261 189.5 296.5 194 332 185 332 176 332 180.5 296.5"></polygon>
                <polygon id="Path" fill="#2F2E41" points="292 327.720035 233.499357 329.860646 175 332 175.032135 327.000629 175.064269 322 233.531492 324.860018"></polygon>
                <path d="M376.022944,336 C373.007437,336 371.790298,333.949609 370.248846,331.354212 C369.86348,330.705991 369.446323,330.003018 368.96302,329.259767 L370.059341,328.562478 C370.552802,329.321453 370.978867,330.0389 371.371865,330.700964 C372.906961,333.286927 373.752735,334.711124 376.022944,334.711124 C383.563566,334.711124 389.697647,322.279788 389.697647,307 C389.697647,291.720225 383.563566,279.288889 376.022944,279.288889 C371.669478,279.288889 368.642511,281.947223 366.208245,287.908336 L365,287.425002 C367.661944,280.906922 371.06154,278 376.022944,278 C384.280928,278 391,291.009094 391,307 C391,322.990919 384.280928,336 376.022944,336 Z" id="Path" fill="#000000"></path>
            </g>
        </g>
    </g>
</svg>